<?xml version="1.0" encoding="UTF-8" standalone="no"?>
<!DOCTYPE svg PUBLIC "-//W3C//DTD SVG 1.1//EN"
 "http://www.w3.org/Graphics/SVG/1.1/DTD/svg11.dtd">
<!-- Generated by graphviz version 7.0.3 (20221126.0506)
 -->
<!-- Pages: 1 -->
<svg width="672pt" height="629pt"
 viewBox="0.00 0.00 671.71 629.50" xmlns="http://www.w3.org/2000/svg" xmlns:xlink="http://www.w3.org/1999/xlink">
<g id="graph0" class="graph" transform="scale(1 1) rotate(0) translate(4 625.5)">
<polygon fill="white" stroke="none" points="-4,4 -4,-625.5 667.71,-625.5 667.71,4 -4,4"/>
<!-- 0 -->
<g id="node1" class="node">
<title>0</title>
<ellipse fill="none" stroke="black" cx="332.04" cy="-310.89" rx="27" ry="18"/>
<text text-anchor="middle" x="332.04" y="-307.19" font-family="Times New Roman,serif" font-size="14.00">0</text>
</g>
<!-- 1 -->
<g id="node2" class="node">
<title>1</title>
<ellipse fill="none" stroke="black" cx="280.97" cy="-251.44" rx="27" ry="18"/>
<text text-anchor="middle" x="280.97" y="-247.74" font-family="Times New Roman,serif" font-size="14.00">1</text>
</g>
<!-- 0&#45;&#45;1 -->
<g id="edge1" class="edge">
<title>0&#45;&#45;1</title>
<path fill="none" stroke="black" d="M318.36,-294.96C311.03,-286.43 302.03,-275.95 294.69,-267.42"/>
</g>
<!-- 2 -->
<g id="node3" class="node">
<title>2</title>
<ellipse fill="none" stroke="black" cx="255.03" cy="-325.42" rx="27" ry="18"/>
<text text-anchor="middle" x="255.03" y="-321.72" font-family="Times New Roman,serif" font-size="14.00">2</text>
</g>
<!-- 0&#45;&#45;2 -->
<g id="edge2" class="edge">
<title>0&#45;&#45;2</title>
<path fill="none" stroke="black" d="M305.97,-315.81C298.03,-317.31 289.3,-318.96 281.34,-320.46"/>
</g>
<!-- 4 -->
<g id="node5" class="node">
<title>4</title>
<ellipse fill="none" stroke="black" cx="383.08" cy="-370.35" rx="27" ry="18"/>
<text text-anchor="middle" x="383.08" y="-366.65" font-family="Times New Roman,serif" font-size="14.00">4</text>
</g>
<!-- 0&#45;&#45;4 -->
<g id="edge3" class="edge">
<title>0&#45;&#45;4</title>
<path fill="none" stroke="black" d="M345.72,-326.82C353.04,-335.35 362.04,-345.83 369.37,-354.37"/>
</g>
<!-- 5 -->
<g id="node6" class="node">
<title>5</title>
<ellipse fill="none" stroke="black" cx="306.06" cy="-384.87" rx="27" ry="18"/>
<text text-anchor="middle" x="306.06" y="-381.17" font-family="Times New Roman,serif" font-size="14.00">5</text>
</g>
<!-- 0&#45;&#45;5 -->
<g id="edge4" class="edge">
<title>0&#45;&#45;5</title>
<path fill="none" stroke="black" d="M325.75,-328.8C321.7,-340.34 316.44,-355.3 312.38,-366.87"/>
</g>
<!-- 6 -->
<g id="node7" class="node">
<title>6</title>
<ellipse fill="none" stroke="black" cx="409.04" cy="-296.35" rx="27" ry="18"/>
<text text-anchor="middle" x="409.04" y="-292.65" font-family="Times New Roman,serif" font-size="14.00">6</text>
</g>
<!-- 0&#45;&#45;6 -->
<g id="edge5" class="edge">
<title>0&#45;&#45;6</title>
<path fill="none" stroke="black" d="M358.11,-305.97C366.05,-304.47 374.78,-302.82 382.74,-301.32"/>
</g>
<!-- 7 -->
<g id="node8" class="node">
<title>7</title>
<ellipse fill="none" stroke="black" cx="357.95" cy="-236.89" rx="27" ry="18"/>
<text text-anchor="middle" x="357.95" y="-233.19" font-family="Times New Roman,serif" font-size="14.00">7</text>
</g>
<!-- 0&#45;&#45;7 -->
<g id="edge6" class="edge">
<title>0&#45;&#45;7</title>
<path fill="none" stroke="black" d="M338.32,-292.97C342.36,-281.43 347.6,-266.46 351.65,-254.89"/>
</g>
<!-- 1&#45;&#45;2 -->
<g id="edge7" class="edge">
<title>1&#45;&#45;2</title>
<path fill="none" stroke="black" d="M274.69,-269.35C270.64,-280.9 265.4,-295.86 261.34,-307.42"/>
</g>
<!-- 3 -->
<g id="node4" class="node">
<title>3</title>
<ellipse fill="none" stroke="black" cx="204.14" cy="-266.07" rx="27" ry="18"/>
<text text-anchor="middle" x="204.14" y="-262.37" font-family="Times New Roman,serif" font-size="14.00">3</text>
</g>
<!-- 1&#45;&#45;3 -->
<g id="edge8" class="edge">
<title>1&#45;&#45;3</title>
<path fill="none" stroke="black" d="M254.53,-256.48C246.72,-257.96 238.17,-259.59 230.37,-261.08"/>
</g>
<!-- 1&#45;&#45;7 -->
<g id="edge9" class="edge">
<title>1&#45;&#45;7</title>
<path fill="none" stroke="black" d="M307.03,-246.52C314.97,-245.01 323.7,-243.36 331.65,-241.86"/>
</g>
<!-- 9 -->
<g id="node10" class="node">
<title>9</title>
<ellipse fill="none" stroke="black" cx="229.89" cy="-192.11" rx="27" ry="18"/>
<text text-anchor="middle" x="229.89" y="-188.41" font-family="Times New Roman,serif" font-size="14.00">9</text>
</g>
<!-- 1&#45;&#45;9 -->
<g id="edge10" class="edge">
<title>1&#45;&#45;9</title>
<path fill="none" stroke="black" d="M267.28,-235.54C259.95,-227.03 250.95,-216.57 243.62,-208.05"/>
</g>
<!-- 11 -->
<g id="node12" class="node">
<title>11</title>
<ellipse fill="none" stroke="black" cx="306.84" cy="-177.63" rx="27" ry="18"/>
<text text-anchor="middle" x="306.84" y="-173.93" font-family="Times New Roman,serif" font-size="14.00">11</text>
</g>
<!-- 1&#45;&#45;11 -->
<g id="edge11" class="edge">
<title>1&#45;&#45;11</title>
<path fill="none" stroke="black" d="M287.23,-233.58C291.27,-222.06 296.5,-207.13 300.54,-195.59"/>
</g>
<!-- 2&#45;&#45;3 -->
<g id="edge12" class="edge">
<title>2&#45;&#45;3</title>
<path fill="none" stroke="black" d="M241.39,-309.52C234.09,-301 225.12,-290.54 217.82,-282.02"/>
</g>
<!-- 2&#45;&#45;5 -->
<g id="edge13" class="edge">
<title>2&#45;&#45;5</title>
<path fill="none" stroke="black" d="M268.7,-341.35C276.03,-349.88 285.02,-360.36 292.35,-368.89"/>
</g>
<!-- 12 -->
<g id="node13" class="node">
<title>12</title>
<ellipse fill="none" stroke="black" cx="178.08" cy="-339.91" rx="27" ry="18"/>
<text text-anchor="middle" x="178.08" y="-336.21" font-family="Times New Roman,serif" font-size="14.00">12</text>
</g>
<!-- 2&#45;&#45;12 -->
<g id="edge14" class="edge">
<title>2&#45;&#45;12</title>
<path fill="none" stroke="black" d="M228.55,-330.41C220.72,-331.88 212.16,-333.5 204.35,-334.97"/>
</g>
<!-- 14 -->
<g id="node15" class="node">
<title>14</title>
<ellipse fill="none" stroke="black" cx="229.15" cy="-399.24" rx="27" ry="18"/>
<text text-anchor="middle" x="229.15" y="-395.54" font-family="Times New Roman,serif" font-size="14.00">14</text>
</g>
<!-- 2&#45;&#45;14 -->
<g id="edge15" class="edge">
<title>2&#45;&#45;14</title>
<path fill="none" stroke="black" d="M248.76,-343.29C244.72,-354.81 239.49,-369.74 235.44,-381.28"/>
</g>
<!-- 3&#45;&#45;9 -->
<g id="edge16" class="edge">
<title>3&#45;&#45;9</title>
<path fill="none" stroke="black" d="M210.38,-248.17C214.4,-236.62 219.6,-221.67 223.63,-210.1"/>
</g>
<!-- 10 -->
<g id="node11" class="node">
<title>10</title>
<ellipse fill="none" stroke="black" cx="153.41" cy="-206.96" rx="27" ry="18"/>
<text text-anchor="middle" x="153.41" y="-203.26" font-family="Times New Roman,serif" font-size="14.00">10</text>
</g>
<!-- 3&#45;&#45;10 -->
<g id="edge17" class="edge">
<title>3&#45;&#45;10</title>
<path fill="none" stroke="black" d="M190.55,-250.23C183.27,-241.75 174.33,-231.33 167.05,-222.84"/>
</g>
<!-- 3&#45;&#45;12 -->
<g id="edge18" class="edge">
<title>3&#45;&#45;12</title>
<path fill="none" stroke="black" d="M197.83,-283.94C193.77,-295.47 188.5,-310.4 184.42,-321.95"/>
</g>
<!-- 13 -->
<g id="node14" class="node">
<title>13</title>
<ellipse fill="none" stroke="black" cx="127.57" cy="-280.65" rx="27" ry="18"/>
<text text-anchor="middle" x="127.57" y="-276.95" font-family="Times New Roman,serif" font-size="14.00">13</text>
</g>
<!-- 3&#45;&#45;13 -->
<g id="edge19" class="edge">
<title>3&#45;&#45;13</title>
<path fill="none" stroke="black" d="M177.79,-271.09C170.09,-272.55 161.68,-274.16 153.97,-275.62"/>
</g>
<!-- 4&#45;&#45;5 -->
<g id="edge20" class="edge">
<title>4&#45;&#45;5</title>
<path fill="none" stroke="black" d="M357.01,-375.27C349.06,-376.76 340.33,-378.41 332.37,-379.91"/>
</g>
<!-- 4&#45;&#45;6 -->
<g id="edge21" class="edge">
<title>4&#45;&#45;6</title>
<path fill="none" stroke="black" d="M389.37,-352.44C393.42,-340.89 398.67,-325.92 402.72,-314.35"/>
</g>
<!-- 8 -->
<g id="node9" class="node">
<title>8</title>
<ellipse fill="none" stroke="black" cx="459.91" cy="-355.77" rx="27" ry="18"/>
<text text-anchor="middle" x="459.91" y="-352.07" font-family="Times New Roman,serif" font-size="14.00">8</text>
</g>
<!-- 4&#45;&#45;8 -->
<g id="edge22" class="edge">
<title>4&#45;&#45;8</title>
<path fill="none" stroke="black" d="M409.52,-365.33C417.33,-363.85 425.88,-362.23 433.68,-360.75"/>
</g>
<!-- 16 -->
<g id="node17" class="node">
<title>16</title>
<ellipse fill="none" stroke="black" cx="434.02" cy="-429.74" rx="27" ry="18"/>
<text text-anchor="middle" x="434.02" y="-426.04" font-family="Times New Roman,serif" font-size="14.00">16</text>
</g>
<!-- 4&#45;&#45;16 -->
<g id="edge23" class="edge">
<title>4&#45;&#45;16</title>
<path fill="none" stroke="black" d="M396.73,-386.27C404.04,-394.79 413.02,-405.25 420.33,-413.78"/>
</g>
<!-- 17 -->
<g id="node18" class="node">
<title>17</title>
<ellipse fill="none" stroke="black" cx="357.02" cy="-444.15" rx="27" ry="18"/>
<text text-anchor="middle" x="357.02" y="-440.45" font-family="Times New Roman,serif" font-size="14.00">17</text>
</g>
<!-- 4&#45;&#45;17 -->
<g id="edge24" class="edge">
<title>4&#45;&#45;17</title>
<path fill="none" stroke="black" d="M376.77,-388.21C372.71,-399.73 367.44,-414.66 363.36,-426.19"/>
</g>
<!-- 5&#45;&#45;14 -->
<g id="edge25" class="edge">
<title>5&#45;&#45;14</title>
<path fill="none" stroke="black" d="M279.59,-389.81C271.77,-391.27 263.21,-392.87 255.4,-394.33"/>
</g>
<!-- 5&#45;&#45;17 -->
<g id="edge26" class="edge">
<title>5&#45;&#45;17</title>
<path fill="none" stroke="black" d="M319.72,-400.75C327.03,-409.26 336.01,-419.7 343.33,-428.22"/>
</g>
<!-- 19 -->
<g id="node20" class="node">
<title>19</title>
<ellipse fill="none" stroke="black" cx="280.04" cy="-458.71" rx="27" ry="18"/>
<text text-anchor="middle" x="280.04" y="-455.01" font-family="Times New Roman,serif" font-size="14.00">19</text>
</g>
<!-- 5&#45;&#45;19 -->
<g id="edge27" class="edge">
<title>5&#45;&#45;19</title>
<path fill="none" stroke="black" d="M299.76,-402.74C295.7,-414.27 290.44,-429.2 286.37,-440.74"/>
</g>
<!-- 6&#45;&#45;7 -->
<g id="edge28" class="edge">
<title>6&#45;&#45;7</title>
<path fill="none" stroke="black" d="M395.35,-280.41C388.02,-271.88 379.02,-261.4 371.68,-252.87"/>
</g>
<!-- 6&#45;&#45;8 -->
<g id="edge29" class="edge">
<title>6&#45;&#45;8</title>
<path fill="none" stroke="black" d="M422.67,-312.27C429.97,-320.8 438.94,-331.27 446.24,-339.8"/>
</g>
<!-- 20 -->
<g id="node21" class="node">
<title>20</title>
<ellipse fill="none" stroke="black" cx="485.91" cy="-281.83" rx="27" ry="18"/>
<text text-anchor="middle" x="485.91" y="-278.13" font-family="Times New Roman,serif" font-size="14.00">20</text>
</g>
<!-- 6&#45;&#45;20 -->
<g id="edge30" class="edge">
<title>6&#45;&#45;20</title>
<path fill="none" stroke="black" d="M435.49,-291.35C443.31,-289.88 451.86,-288.26 459.67,-286.79"/>
</g>
<!-- 21 -->
<g id="node22" class="node">
<title>21</title>
<ellipse fill="none" stroke="black" cx="434.79" cy="-222.45" rx="27" ry="18"/>
<text text-anchor="middle" x="434.79" y="-218.75" font-family="Times New Roman,serif" font-size="14.00">21</text>
</g>
<!-- 6&#45;&#45;21 -->
<g id="edge31" class="edge">
<title>6&#45;&#45;21</title>
<path fill="none" stroke="black" d="M415.27,-278.46C419.29,-266.93 424.5,-251.98 428.52,-240.43"/>
</g>
<!-- 7&#45;&#45;11 -->
<g id="edge32" class="edge">
<title>7&#45;&#45;11</title>
<path fill="none" stroke="black" d="M344.25,-221.01C336.92,-212.51 327.91,-202.06 320.57,-193.56"/>
</g>
<!-- 7&#45;&#45;21 -->
<g id="edge33" class="edge">
<title>7&#45;&#45;21</title>
<path fill="none" stroke="black" d="M384.39,-231.92C392.21,-230.45 400.76,-228.85 408.56,-227.38"/>
</g>
<!-- 23 -->
<g id="node24" class="node">
<title>23</title>
<ellipse fill="none" stroke="black" cx="383.74" cy="-162.99" rx="27" ry="18"/>
<text text-anchor="middle" x="383.74" y="-159.29" font-family="Times New Roman,serif" font-size="14.00">23</text>
</g>
<!-- 7&#45;&#45;23 -->
<g id="edge34" class="edge">
<title>7&#45;&#45;23</title>
<path fill="none" stroke="black" d="M364.2,-219C368.22,-207.46 373.44,-192.52 377.47,-180.97"/>
</g>
<!-- 8&#45;&#45;16 -->
<g id="edge35" class="edge">
<title>8&#45;&#45;16</title>
<path fill="none" stroke="black" d="M453.64,-373.67C449.6,-385.22 444.36,-400.18 440.32,-411.74"/>
</g>
<!-- 18 -->
<g id="node19" class="node">
<title>18</title>
<ellipse fill="none" stroke="black" cx="510.52" cy="-414.99" rx="27" ry="18"/>
<text text-anchor="middle" x="510.52" y="-411.29" font-family="Times New Roman,serif" font-size="14.00">18</text>
</g>
<!-- 8&#45;&#45;18 -->
<g id="edge36" class="edge">
<title>8&#45;&#45;18</title>
<path fill="none" stroke="black" d="M473.47,-371.64C480.73,-380.14 489.65,-390.57 496.92,-399.08"/>
</g>
<!-- 8&#45;&#45;20 -->
<g id="edge37" class="edge">
<title>8&#45;&#45;20</title>
<path fill="none" stroke="black" d="M466.2,-337.87C470.26,-326.33 475.52,-311.38 479.58,-299.82"/>
</g>
<!-- 22 -->
<g id="node23" class="node">
<title>22</title>
<ellipse fill="none" stroke="black" cx="536.41" cy="-341.2" rx="27" ry="18"/>
<text text-anchor="middle" x="536.41" y="-337.5" font-family="Times New Roman,serif" font-size="14.00">22</text>
</g>
<!-- 8&#45;&#45;22 -->
<g id="edge38" class="edge">
<title>8&#45;&#45;22</title>
<path fill="none" stroke="black" d="M486.24,-350.75C493.93,-349.29 502.34,-347.69 510.04,-346.22"/>
</g>
<!-- 9&#45;&#45;10 -->
<g id="edge39" class="edge">
<title>9&#45;&#45;10</title>
<path fill="none" stroke="black" d="M203.57,-197.22C195.88,-198.71 187.48,-200.35 179.78,-201.84"/>
</g>
<!-- 9&#45;&#45;11 -->
<g id="edge40" class="edge">
<title>9&#45;&#45;11</title>
<path fill="none" stroke="black" d="M256.37,-187.13C264.2,-185.66 272.76,-184.05 280.57,-182.58"/>
</g>
<!-- 25 -->
<g id="node26" class="node">
<title>25</title>
<ellipse fill="none" stroke="black" cx="179.02" cy="-133.21" rx="27" ry="18"/>
<text text-anchor="middle" x="179.02" y="-129.51" font-family="Times New Roman,serif" font-size="14.00">25</text>
</g>
<!-- 9&#45;&#45;25 -->
<g id="edge41" class="edge">
<title>9&#45;&#45;25</title>
<path fill="none" stroke="black" d="M216.26,-176.33C208.96,-167.88 199.99,-157.5 192.69,-149.04"/>
</g>
<!-- 27 -->
<g id="node28" class="node">
<title>27</title>
<ellipse fill="none" stroke="black" cx="255.78" cy="-118.68" rx="27" ry="18"/>
<text text-anchor="middle" x="255.78" y="-114.98" font-family="Times New Roman,serif" font-size="14.00">27</text>
</g>
<!-- 9&#45;&#45;27 -->
<g id="edge42" class="edge">
<title>9&#45;&#45;27</title>
<path fill="none" stroke="black" d="M236.16,-174.33C240.2,-162.87 245.44,-148.02 249.48,-136.54"/>
</g>
<!-- 10&#45;&#45;13 -->
<g id="edge43" class="edge">
<title>10&#45;&#45;13</title>
<path fill="none" stroke="black" d="M147.16,-224.8C143.13,-236.3 137.9,-251.2 133.86,-262.72"/>
</g>
<!-- 15 -->
<g id="node16" class="node">
<title>15</title>
<ellipse fill="none" stroke="black" cx="77.88" cy="-221.93" rx="27" ry="18"/>
<text text-anchor="middle" x="77.88" y="-218.23" font-family="Times New Roman,serif" font-size="14.00">15</text>
</g>
<!-- 10&#45;&#45;15 -->
<g id="edge44" class="edge">
<title>10&#45;&#45;15</title>
<path fill="none" stroke="black" d="M127.42,-212.11C119.91,-213.6 111.71,-215.23 104.18,-216.72"/>
</g>
<!-- 10&#45;&#45;25 -->
<g id="edge45" class="edge">
<title>10&#45;&#45;25</title>
<path fill="none" stroke="black" d="M159.61,-189.11C163.61,-177.6 168.79,-162.68 172.79,-151.16"/>
</g>
<!-- 26 -->
<g id="node27" class="node">
<title>26</title>
<ellipse fill="none" stroke="black" cx="103.57" cy="-148.73" rx="27" ry="18"/>
<text text-anchor="middle" x="103.57" y="-145.03" font-family="Times New Roman,serif" font-size="14.00">26</text>
</g>
<!-- 10&#45;&#45;26 -->
<g id="edge46" class="edge">
<title>10&#45;&#45;26</title>
<path fill="none" stroke="black" d="M139.79,-191.05C132.76,-182.83 124.2,-172.84 117.17,-164.62"/>
</g>
<!-- 11&#45;&#45;23 -->
<g id="edge47" class="edge">
<title>11&#45;&#45;23</title>
<path fill="none" stroke="black" d="M332.87,-172.68C340.8,-171.16 349.52,-169.5 357.47,-167.99"/>
</g>
<!-- 11&#45;&#45;27 -->
<g id="edge48" class="edge">
<title>11&#45;&#45;27</title>
<path fill="none" stroke="black" d="M293.15,-161.83C285.83,-153.38 276.83,-142.99 269.5,-134.52"/>
</g>
<!-- 29 -->
<g id="node29" class="node">
<title>29</title>
<ellipse fill="none" stroke="black" cx="332.55" cy="-104.14" rx="27" ry="18"/>
<text text-anchor="middle" x="332.55" y="-100.44" font-family="Times New Roman,serif" font-size="14.00">29</text>
</g>
<!-- 11&#45;&#45;29 -->
<g id="edge49" class="edge">
<title>11&#45;&#45;29</title>
<path fill="none" stroke="black" d="M313.06,-159.84C317.07,-148.37 322.28,-133.51 326.3,-122.02"/>
</g>
<!-- 12&#45;&#45;13 -->
<g id="edge50" class="edge">
<title>12&#45;&#45;13</title>
<path fill="none" stroke="black" d="M164.55,-324.03C157.3,-315.53 148.4,-305.08 141.15,-296.57"/>
</g>
<!-- 12&#45;&#45;14 -->
<g id="edge51" class="edge">
<title>12&#45;&#45;14</title>
<path fill="none" stroke="black" d="M191.77,-355.81C199.09,-364.32 208.09,-374.78 215.42,-383.29"/>
</g>
<!-- 30 -->
<g id="node30" class="node">
<title>30</title>
<ellipse fill="none" stroke="black" cx="101.57" cy="-354.25" rx="27" ry="18"/>
<text text-anchor="middle" x="101.57" y="-350.55" font-family="Times New Roman,serif" font-size="14.00">30</text>
</g>
<!-- 12&#45;&#45;30 -->
<g id="edge52" class="edge">
<title>12&#45;&#45;30</title>
<path fill="none" stroke="black" d="M151.75,-344.85C144.06,-346.29 135.65,-347.86 127.95,-349.31"/>
</g>
<!-- 32 -->
<g id="node32" class="node">
<title>32</title>
<ellipse fill="none" stroke="black" cx="152.48" cy="-413.46" rx="27" ry="18"/>
<text text-anchor="middle" x="152.48" y="-409.76" font-family="Times New Roman,serif" font-size="14.00">32</text>
</g>
<!-- 12&#45;&#45;32 -->
<g id="edge53" class="edge">
<title>12&#45;&#45;32</title>
<path fill="none" stroke="black" d="M171.89,-357.72C167.89,-369.2 162.71,-384.07 158.71,-395.57"/>
</g>
<!-- 13&#45;&#45;15 -->
<g id="edge54" class="edge">
<title>13&#45;&#45;15</title>
<path fill="none" stroke="black" d="M113.99,-264.6C106.98,-256.32 98.45,-246.24 91.44,-237.96"/>
</g>
<!-- 13&#45;&#45;30 -->
<g id="edge55" class="edge">
<title>13&#45;&#45;30</title>
<path fill="none" stroke="black" d="M121.28,-298.47C117.22,-309.95 111.96,-324.84 107.89,-336.34"/>
</g>
<!-- 31 -->
<g id="node31" class="node">
<title>31</title>
<ellipse fill="none" stroke="black" cx="52.25" cy="-295.18" rx="27" ry="18"/>
<text text-anchor="middle" x="52.25" y="-291.48" font-family="Times New Roman,serif" font-size="14.00">31</text>
</g>
<!-- 13&#45;&#45;31 -->
<g id="edge56" class="edge">
<title>13&#45;&#45;31</title>
<path fill="none" stroke="black" d="M101.23,-285.73C93.85,-287.15 85.83,-288.7 78.45,-290.12"/>
</g>
<!-- 14&#45;&#45;19 -->
<g id="edge57" class="edge">
<title>14&#45;&#45;19</title>
<path fill="none" stroke="black" d="M242.79,-415.17C250.09,-423.71 259.06,-434.19 266.37,-442.72"/>
</g>
<!-- 14&#45;&#45;32 -->
<g id="edge58" class="edge">
<title>14&#45;&#45;32</title>
<path fill="none" stroke="black" d="M202.76,-404.13C195.05,-405.56 186.63,-407.13 178.92,-408.56"/>
</g>
<!-- 34 -->
<g id="node33" class="node">
<title>34</title>
<ellipse fill="none" stroke="black" cx="203.35" cy="-472.73" rx="27" ry="18"/>
<text text-anchor="middle" x="203.35" y="-469.03" font-family="Times New Roman,serif" font-size="14.00">34</text>
</g>
<!-- 14&#45;&#45;34 -->
<g id="edge59" class="edge">
<title>14&#45;&#45;34</title>
<path fill="none" stroke="black" d="M222.9,-417.03C218.87,-428.5 213.66,-443.36 209.62,-454.85"/>
</g>
<!-- 15&#45;&#45;26 -->
<g id="edge60" class="edge">
<title>15&#45;&#45;26</title>
<path fill="none" stroke="black" d="M84.1,-204.21C88.11,-192.79 93.3,-177.99 97.32,-166.54"/>
</g>
<!-- 15&#45;&#45;31 -->
<g id="edge61" class="edge">
<title>15&#45;&#45;31</title>
<path fill="none" stroke="black" d="M71.68,-239.66C67.68,-251.09 62.49,-265.91 58.49,-277.36"/>
</g>
<!-- 16&#45;&#45;17 -->
<g id="edge62" class="edge">
<title>16&#45;&#45;17</title>
<path fill="none" stroke="black" d="M407.95,-434.62C400.01,-436.1 391.28,-437.74 383.33,-439.23"/>
</g>
<!-- 16&#45;&#45;18 -->
<g id="edge63" class="edge">
<title>16&#45;&#45;18</title>
<path fill="none" stroke="black" d="M460.35,-424.67C468.04,-423.18 476.45,-421.56 484.14,-420.08"/>
</g>
<!-- 36 -->
<g id="node34" class="node">
<title>36</title>
<ellipse fill="none" stroke="black" cx="484.61" cy="-488.77" rx="27" ry="18"/>
<text text-anchor="middle" x="484.61" y="-485.07" font-family="Times New Roman,serif" font-size="14.00">36</text>
</g>
<!-- 16&#45;&#45;36 -->
<g id="edge64" class="edge">
<title>16&#45;&#45;36</title>
<path fill="none" stroke="black" d="M447.57,-445.56C454.83,-454.03 463.75,-464.43 471.01,-472.91"/>
</g>
<!-- 37 -->
<g id="node35" class="node">
<title>37</title>
<ellipse fill="none" stroke="black" cx="407.8" cy="-503.18" rx="27" ry="18"/>
<text text-anchor="middle" x="407.8" y="-499.48" font-family="Times New Roman,serif" font-size="14.00">37</text>
</g>
<!-- 16&#45;&#45;37 -->
<g id="edge65" class="edge">
<title>16&#45;&#45;37</title>
<path fill="none" stroke="black" d="M427.67,-447.52C423.58,-458.98 418.27,-473.83 414.18,-485.31"/>
</g>
<!-- 17&#45;&#45;19 -->
<g id="edge66" class="edge">
<title>17&#45;&#45;19</title>
<path fill="none" stroke="black" d="M330.96,-449.08C323.02,-450.58 314.29,-452.23 306.34,-453.73"/>
</g>
<!-- 17&#45;&#45;37 -->
<g id="edge67" class="edge">
<title>17&#45;&#45;37</title>
<path fill="none" stroke="black" d="M370.63,-459.97C377.91,-468.43 386.86,-478.84 394.15,-487.31"/>
</g>
<!-- 39 -->
<g id="node37" class="node">
<title>39</title>
<ellipse fill="none" stroke="black" cx="330.97" cy="-517.61" rx="27" ry="18"/>
<text text-anchor="middle" x="330.97" y="-513.91" font-family="Times New Roman,serif" font-size="14.00">39</text>
</g>
<!-- 17&#45;&#45;39 -->
<g id="edge68" class="edge">
<title>17&#45;&#45;39</title>
<path fill="none" stroke="black" d="M350.72,-461.93C346.65,-473.4 341.38,-488.25 337.31,-499.74"/>
</g>
<!-- 18&#45;&#45;22 -->
<g id="edge69" class="edge">
<title>18&#45;&#45;22</title>
<path fill="none" stroke="black" d="M516.79,-397.13C520.83,-385.61 526.07,-370.69 530.11,-359.15"/>
</g>
<!-- 24 -->
<g id="node25" class="node">
<title>24</title>
<ellipse fill="none" stroke="black" cx="585.95" cy="-400.05" rx="27" ry="18"/>
<text text-anchor="middle" x="585.95" y="-396.35" font-family="Times New Roman,serif" font-size="14.00">24</text>
</g>
<!-- 18&#45;&#45;24 -->
<g id="edge70" class="edge">
<title>18&#45;&#45;24</title>
<path fill="none" stroke="black" d="M536.48,-409.85C543.98,-408.37 552.17,-406.74 559.69,-405.26"/>
</g>
<!-- 18&#45;&#45;36 -->
<g id="edge71" class="edge">
<title>18&#45;&#45;36</title>
<path fill="none" stroke="black" d="M504.25,-432.85C500.2,-444.37 494.96,-459.29 490.91,-470.82"/>
</g>
<!-- 38 -->
<g id="node36" class="node">
<title>38</title>
<ellipse fill="none" stroke="black" cx="560.03" cy="-473.45" rx="27" ry="18"/>
<text text-anchor="middle" x="560.03" y="-469.75" font-family="Times New Roman,serif" font-size="14.00">38</text>
</g>
<!-- 18&#45;&#45;38 -->
<g id="edge72" class="edge">
<title>18&#45;&#45;38</title>
<path fill="none" stroke="black" d="M524.05,-430.97C531.04,-439.22 539.54,-449.25 546.52,-457.5"/>
</g>
<!-- 19&#45;&#45;34 -->
<g id="edge73" class="edge">
<title>19&#45;&#45;34</title>
<path fill="none" stroke="black" d="M253.65,-463.53C245.94,-464.94 237.51,-466.49 229.79,-467.9"/>
</g>
<!-- 19&#45;&#45;39 -->
<g id="edge74" class="edge">
<title>19&#45;&#45;39</title>
<path fill="none" stroke="black" d="M293.69,-474.49C301,-482.94 309.97,-493.33 317.28,-501.78"/>
</g>
<!-- 41 -->
<g id="node38" class="node">
<title>41</title>
<ellipse fill="none" stroke="black" cx="254.14" cy="-532.05" rx="27" ry="18"/>
<text text-anchor="middle" x="254.14" y="-528.35" font-family="Times New Roman,serif" font-size="14.00">41</text>
</g>
<!-- 19&#45;&#45;41 -->
<g id="edge75" class="edge">
<title>19&#45;&#45;41</title>
<path fill="none" stroke="black" d="M273.77,-476.46C269.73,-487.91 264.49,-502.74 260.44,-514.21"/>
</g>
<!-- 20&#45;&#45;21 -->
<g id="edge76" class="edge">
<title>20&#45;&#45;21</title>
<path fill="none" stroke="black" d="M472.21,-265.92C464.87,-257.4 455.87,-246.94 448.53,-238.41"/>
</g>
<!-- 20&#45;&#45;22 -->
<g id="edge77" class="edge">
<title>20&#45;&#45;22</title>
<path fill="none" stroke="black" d="M499.44,-297.74C506.69,-306.26 515.59,-316.72 522.84,-325.24"/>
</g>
<!-- 42 -->
<g id="node39" class="node">
<title>42</title>
<ellipse fill="none" stroke="black" cx="562.28" cy="-267.41" rx="27" ry="18"/>
<text text-anchor="middle" x="562.28" y="-263.71" font-family="Times New Roman,serif" font-size="14.00">42</text>
</g>
<!-- 20&#45;&#45;42 -->
<g id="edge78" class="edge">
<title>20&#45;&#45;42</title>
<path fill="none" stroke="black" d="M512.19,-276.87C519.87,-275.42 528.27,-273.83 535.95,-272.38"/>
</g>
<!-- 43 -->
<g id="node40" class="node">
<title>43</title>
<ellipse fill="none" stroke="black" cx="511.32" cy="-208.12" rx="27" ry="18"/>
<text text-anchor="middle" x="511.32" y="-204.42" font-family="Times New Roman,serif" font-size="14.00">43</text>
</g>
<!-- 20&#45;&#45;43 -->
<g id="edge79" class="edge">
<title>20&#45;&#45;43</title>
<path fill="none" stroke="black" d="M492.06,-263.99C496.03,-252.48 501.17,-237.58 505.14,-226.06"/>
</g>
<!-- 21&#45;&#45;23 -->
<g id="edge80" class="edge">
<title>21&#45;&#45;23</title>
<path fill="none" stroke="black" d="M421.11,-206.52C413.79,-197.99 404.79,-187.51 397.46,-178.97"/>
</g>
<!-- 21&#45;&#45;43 -->
<g id="edge81" class="edge">
<title>21&#45;&#45;43</title>
<path fill="none" stroke="black" d="M461.13,-217.52C468.82,-216.08 477.23,-214.5 484.93,-213.06"/>
</g>
<!-- 45 -->
<g id="node42" class="node">
<title>45</title>
<ellipse fill="none" stroke="black" cx="460.33" cy="-148.83" rx="27" ry="18"/>
<text text-anchor="middle" x="460.33" y="-145.13" font-family="Times New Roman,serif" font-size="14.00">45</text>
</g>
<!-- 21&#45;&#45;45 -->
<g id="edge82" class="edge">
<title>21&#45;&#45;45</title>
<path fill="none" stroke="black" d="M440.97,-204.63C444.96,-193.14 450.12,-178.25 454.12,-166.74"/>
</g>
<!-- 22&#45;&#45;24 -->
<g id="edge83" class="edge">
<title>22&#45;&#45;24</title>
<path fill="none" stroke="black" d="M549.95,-357.28C556.94,-365.58 565.44,-375.69 572.43,-383.99"/>
</g>
<!-- 22&#45;&#45;42 -->
<g id="edge84" class="edge">
<title>22&#45;&#45;42</title>
<path fill="none" stroke="black" d="M542.68,-323.33C546.71,-311.82 551.95,-296.89 555.99,-285.36"/>
</g>
<!-- 44 -->
<g id="node41" class="node">
<title>44</title>
<ellipse fill="none" stroke="black" cx="611.59" cy="-326.56" rx="27" ry="18"/>
<text text-anchor="middle" x="611.59" y="-322.86" font-family="Times New Roman,serif" font-size="14.00">44</text>
</g>
<!-- 22&#45;&#45;44 -->
<g id="edge85" class="edge">
<title>22&#45;&#45;44</title>
<path fill="none" stroke="black" d="M562.71,-336.08C569.99,-334.66 577.89,-333.12 585.18,-331.7"/>
</g>
<!-- 23&#45;&#45;29 -->
<g id="edge86" class="edge">
<title>23&#45;&#45;29</title>
<path fill="none" stroke="black" d="M370.03,-147.22C362.68,-138.77 353.66,-128.4 346.31,-119.95"/>
</g>
<!-- 23&#45;&#45;45 -->
<g id="edge87" class="edge">
<title>23&#45;&#45;45</title>
<path fill="none" stroke="black" d="M410.1,-158.11C417.8,-156.69 426.22,-155.13 433.93,-153.71"/>
</g>
<!-- 47 -->
<g id="node43" class="node">
<title>47</title>
<ellipse fill="none" stroke="black" cx="409.3" cy="-89.56" rx="27" ry="18"/>
<text text-anchor="middle" x="409.3" y="-85.86" font-family="Times New Roman,serif" font-size="14.00">47</text>
</g>
<!-- 23&#45;&#45;47 -->
<g id="edge88" class="edge">
<title>23&#45;&#45;47</title>
<path fill="none" stroke="black" d="M389.93,-145.21C393.92,-133.75 399.09,-118.9 403.08,-107.42"/>
</g>
<!-- 24&#45;&#45;38 -->
<g id="edge89" class="edge">
<title>24&#45;&#45;38</title>
<path fill="none" stroke="black" d="M579.68,-417.82C575.63,-429.28 570.39,-444.12 566.34,-455.59"/>
</g>
<!-- 24&#45;&#45;44 -->
<g id="edge90" class="edge">
<title>24&#45;&#45;44</title>
<path fill="none" stroke="black" d="M592.16,-382.26C596.16,-370.79 601.34,-355.93 605.35,-344.45"/>
</g>
<!-- 25&#45;&#45;26 -->
<g id="edge91" class="edge">
<title>25&#45;&#45;26</title>
<path fill="none" stroke="black" d="M153.05,-138.56C145.55,-140.1 137.36,-141.78 129.84,-143.33"/>
</g>
<!-- 25&#45;&#45;27 -->
<g id="edge92" class="edge">
<title>25&#45;&#45;27</title>
<path fill="none" stroke="black" d="M205.44,-128.21C213.16,-126.75 221.59,-125.15 229.32,-123.69"/>
</g>
<!-- 49 -->
<g id="node44" class="node">
<title>49</title>
<ellipse fill="none" stroke="black" cx="129.28" cy="-75.95" rx="27" ry="18"/>
<text text-anchor="middle" x="129.28" y="-72.25" font-family="Times New Roman,serif" font-size="14.00">49</text>
</g>
<!-- 25&#45;&#45;49 -->
<g id="edge93" class="edge">
<title>25&#45;&#45;49</title>
<path fill="none" stroke="black" d="M165.16,-117.26C158.26,-109.32 149.95,-99.75 143.06,-91.82"/>
</g>
<!-- 51 -->
<g id="node45" class="node">
<title>51</title>
<ellipse fill="none" stroke="black" cx="205.23" cy="-60.98" rx="27" ry="18"/>
<text text-anchor="middle" x="205.23" y="-57.28" font-family="Times New Roman,serif" font-size="14.00">51</text>
</g>
<!-- 25&#45;&#45;51 -->
<g id="edge94" class="edge">
<title>25&#45;&#45;51</title>
<path fill="none" stroke="black" d="M185.5,-115.36C189.53,-104.25 194.7,-90 198.73,-78.88"/>
</g>
<!-- 26&#45;&#45;49 -->
<g id="edge95" class="edge">
<title>26&#45;&#45;49</title>
<path fill="none" stroke="black" d="M109.92,-130.74C113.91,-119.46 119.02,-104.98 123,-93.74"/>
</g>
<!-- 27&#45;&#45;29 -->
<g id="edge96" class="edge">
<title>27&#45;&#45;29</title>
<path fill="none" stroke="black" d="M282.2,-113.67C289.92,-112.21 298.36,-110.61 306.08,-109.15"/>
</g>
<!-- 27&#45;&#45;51 -->
<g id="edge97" class="edge">
<title>27&#45;&#45;51</title>
<path fill="none" stroke="black" d="M241.97,-102.91C234.84,-94.77 226.16,-84.86 219.03,-76.73"/>
</g>
<!-- 53 -->
<g id="node46" class="node">
<title>53</title>
<ellipse fill="none" stroke="black" cx="281.64" cy="-46.34" rx="27" ry="18"/>
<text text-anchor="middle" x="281.64" y="-42.64" font-family="Times New Roman,serif" font-size="14.00">53</text>
</g>
<!-- 27&#45;&#45;53 -->
<g id="edge98" class="edge">
<title>27&#45;&#45;53</title>
<path fill="none" stroke="black" d="M262.17,-100.79C266.15,-89.67 271.25,-75.4 275.23,-64.26"/>
</g>
<!-- 29&#45;&#45;47 -->
<g id="edge99" class="edge">
<title>29&#45;&#45;47</title>
<path fill="none" stroke="black" d="M358.96,-99.12C366.68,-97.65 375.12,-96.05 382.84,-94.58"/>
</g>
<!-- 29&#45;&#45;53 -->
<g id="edge100" class="edge">
<title>29&#45;&#45;53</title>
<path fill="none" stroke="black" d="M318.64,-88.34C311.46,-80.19 302.72,-70.27 295.53,-62.11"/>
</g>
<!-- 55 -->
<g id="node47" class="node">
<title>55</title>
<ellipse fill="none" stroke="black" cx="358.07" cy="-31.97" rx="27" ry="18"/>
<text text-anchor="middle" x="358.07" y="-28.27" font-family="Times New Roman,serif" font-size="14.00">55</text>
</g>
<!-- 29&#45;&#45;55 -->
<g id="edge101" class="edge">
<title>29&#45;&#45;55</title>
<path fill="none" stroke="black" d="M338.86,-86.3C342.79,-75.19 347.82,-60.96 351.75,-49.85"/>
</g>
<!-- 30&#45;&#45;31 -->
<g id="edge102" class="edge">
<title>30&#45;&#45;31</title>
<path fill="none" stroke="black" d="M88.35,-338.42C81.28,-329.94 72.58,-319.53 65.5,-311.05"/>
</g>
<!-- 30&#45;&#45;32 -->
<g id="edge103" class="edge">
<title>30&#45;&#45;32</title>
<path fill="none" stroke="black" d="M115.21,-370.12C122.52,-378.61 131.49,-389.05 138.8,-397.55"/>
</g>
<!-- 56 -->
<g id="node48" class="node">
<title>56</title>
<ellipse fill="none" stroke="black" cx="27" cy="-368.18" rx="27" ry="18"/>
<text text-anchor="middle" x="27" y="-364.48" font-family="Times New Roman,serif" font-size="14.00">56</text>
</g>
<!-- 30&#45;&#45;56 -->
<g id="edge104" class="edge">
<title>30&#45;&#45;56</title>
<path fill="none" stroke="black" d="M75.49,-359.12C68.35,-360.45 60.6,-361.9 53.44,-363.24"/>
</g>
<!-- 58 -->
<g id="node49" class="node">
<title>58</title>
<ellipse fill="none" stroke="black" cx="77.02" cy="-427.14" rx="27" ry="18"/>
<text text-anchor="middle" x="77.02" y="-423.44" font-family="Times New Roman,serif" font-size="14.00">58</text>
</g>
<!-- 30&#45;&#45;58 -->
<g id="edge105" class="edge">
<title>30&#45;&#45;58</title>
<path fill="none" stroke="black" d="M95.5,-372.27C91.69,-383.57 86.81,-398.07 83.02,-409.33"/>
</g>
<!-- 31&#45;&#45;56 -->
<g id="edge106" class="edge">
<title>31&#45;&#45;56</title>
<path fill="none" stroke="black" d="M46.14,-312.85C42.23,-324.16 37.17,-338.79 33.23,-350.16"/>
</g>
<!-- 32&#45;&#45;34 -->
<g id="edge107" class="edge">
<title>32&#45;&#45;34</title>
<path fill="none" stroke="black" d="M166.11,-429.35C173.41,-437.85 182.38,-448.29 189.68,-456.81"/>
</g>
<!-- 32&#45;&#45;58 -->
<g id="edge108" class="edge">
<title>32&#45;&#45;58</title>
<path fill="none" stroke="black" d="M126.09,-418.25C118.78,-419.57 110.84,-421.01 103.53,-422.33"/>
</g>
<!-- 60 -->
<g id="node50" class="node">
<title>60</title>
<ellipse fill="none" stroke="black" cx="127.54" cy="-486.19" rx="27" ry="18"/>
<text text-anchor="middle" x="127.54" y="-482.49" font-family="Times New Roman,serif" font-size="14.00">60</text>
</g>
<!-- 32&#45;&#45;60 -->
<g id="edge109" class="edge">
<title>32&#45;&#45;60</title>
<path fill="none" stroke="black" d="M146.32,-431.44C142.48,-442.63 137.56,-456.97 133.72,-468.16"/>
</g>
<!-- 34&#45;&#45;41 -->
<g id="edge110" class="edge">
<title>34&#45;&#45;41</title>
<path fill="none" stroke="black" d="M216.96,-488.63C224.25,-497.14 233.2,-507.59 240.49,-516.11"/>
</g>
<!-- 34&#45;&#45;60 -->
<g id="edge111" class="edge">
<title>34&#45;&#45;60</title>
<path fill="none" stroke="black" d="M176.83,-477.44C169.41,-478.76 161.33,-480.19 153.91,-481.51"/>
</g>
<!-- 62 -->
<g id="node51" class="node">
<title>62</title>
<ellipse fill="none" stroke="black" cx="178.21" cy="-545.1" rx="27" ry="18"/>
<text text-anchor="middle" x="178.21" y="-541.4" font-family="Times New Roman,serif" font-size="14.00">62</text>
</g>
<!-- 34&#45;&#45;62 -->
<g id="edge112" class="edge">
<title>34&#45;&#45;62</title>
<path fill="none" stroke="black" d="M197.13,-490.62C193.27,-501.75 188.31,-516.02 184.44,-527.16"/>
</g>
<!-- 36&#45;&#45;37 -->
<g id="edge113" class="edge">
<title>36&#45;&#45;37</title>
<path fill="none" stroke="black" d="M458.17,-493.73C450.45,-495.18 442.01,-496.76 434.28,-498.21"/>
</g>
<!-- 36&#45;&#45;38 -->
<g id="edge114" class="edge">
<title>36&#45;&#45;38</title>
<path fill="none" stroke="black" d="M510.56,-483.5C518.06,-481.98 526.25,-480.31 533.77,-478.79"/>
</g>
<!-- 64 -->
<g id="node52" class="node">
<title>64</title>
<ellipse fill="none" stroke="black" cx="533.87" cy="-546.32" rx="27" ry="18"/>
<text text-anchor="middle" x="533.87" y="-542.62" font-family="Times New Roman,serif" font-size="14.00">64</text>
</g>
<!-- 36&#45;&#45;64 -->
<g id="edge115" class="edge">
<title>36&#45;&#45;64</title>
<path fill="none" stroke="black" d="M498.33,-504.8C505.16,-512.78 513.4,-522.4 520.22,-530.37"/>
</g>
<!-- 65 -->
<g id="node53" class="node">
<title>65</title>
<ellipse fill="none" stroke="black" cx="457.94" cy="-561.05" rx="27" ry="18"/>
<text text-anchor="middle" x="457.94" y="-557.35" font-family="Times New Roman,serif" font-size="14.00">65</text>
</g>
<!-- 36&#45;&#45;65 -->
<g id="edge116" class="edge">
<title>36&#45;&#45;65</title>
<path fill="none" stroke="black" d="M478.01,-506.64C473.91,-517.76 468.65,-532.01 464.54,-543.14"/>
</g>
<!-- 37&#45;&#45;39 -->
<g id="edge117" class="edge">
<title>37&#45;&#45;39</title>
<path fill="none" stroke="black" d="M381.36,-508.14C373.54,-509.61 365,-511.22 357.2,-512.68"/>
</g>
<!-- 37&#45;&#45;65 -->
<g id="edge118" class="edge">
<title>37&#45;&#45;65</title>
<path fill="none" stroke="black" d="M421.5,-518.99C428.57,-527.16 437.18,-537.09 444.25,-545.26"/>
</g>
<!-- 67 -->
<g id="node54" class="node">
<title>67</title>
<ellipse fill="none" stroke="black" cx="381.51" cy="-575.52" rx="27" ry="18"/>
<text text-anchor="middle" x="381.51" y="-571.82" font-family="Times New Roman,serif" font-size="14.00">67</text>
</g>
<!-- 37&#45;&#45;67 -->
<g id="edge119" class="edge">
<title>37&#45;&#45;67</title>
<path fill="none" stroke="black" d="M401.3,-521.06C397.26,-532.19 392.07,-546.46 388.03,-557.6"/>
</g>
<!-- 38&#45;&#45;64 -->
<g id="edge120" class="edge">
<title>38&#45;&#45;64</title>
<path fill="none" stroke="black" d="M553.7,-491.09C549.65,-502.38 544.4,-516.98 540.33,-528.33"/>
</g>
<!-- 39&#45;&#45;41 -->
<g id="edge121" class="edge">
<title>39&#45;&#45;41</title>
<path fill="none" stroke="black" d="M304.53,-522.58C296.71,-524.05 288.17,-525.66 280.37,-527.12"/>
</g>
<!-- 39&#45;&#45;67 -->
<g id="edge122" class="edge">
<title>39&#45;&#45;67</title>
<path fill="none" stroke="black" d="M344.78,-533.44C351.91,-541.61 360.59,-551.55 367.72,-559.72"/>
</g>
<!-- 69 -->
<g id="node55" class="node">
<title>69</title>
<ellipse fill="none" stroke="black" cx="305.02" cy="-589.74" rx="27" ry="18"/>
<text text-anchor="middle" x="305.02" y="-586.04" font-family="Times New Roman,serif" font-size="14.00">69</text>
</g>
<!-- 39&#45;&#45;69 -->
<g id="edge123" class="edge">
<title>39&#45;&#45;69</title>
<path fill="none" stroke="black" d="M324.55,-535.44C320.56,-546.54 315.45,-560.76 311.45,-571.87"/>
</g>
<!-- 41&#45;&#45;62 -->
<g id="edge124" class="edge">
<title>41&#45;&#45;62</title>
<path fill="none" stroke="black" d="M227.58,-536.61C220.14,-537.89 212.06,-539.28 204.63,-540.56"/>
</g>
<!-- 41&#45;&#45;69 -->
<g id="edge125" class="edge">
<title>41&#45;&#45;69</title>
<path fill="none" stroke="black" d="M268.04,-547.82C275.22,-555.96 283.96,-565.86 291.14,-574"/>
</g>
<!-- 71 -->
<g id="node56" class="node">
<title>71</title>
<ellipse fill="none" stroke="black" cx="228.85" cy="-603.5" rx="27" ry="18"/>
<text text-anchor="middle" x="228.85" y="-599.8" font-family="Times New Roman,serif" font-size="14.00">71</text>
</g>
<!-- 41&#45;&#45;71 -->
<g id="edge126" class="edge">
<title>41&#45;&#45;71</title>
<path fill="none" stroke="black" d="M247.89,-549.71C244.03,-560.62 239.09,-574.58 235.21,-585.54"/>
</g>
<!-- 42&#45;&#45;43 -->
<g id="edge127" class="edge">
<title>42&#45;&#45;43</title>
<path fill="none" stroke="black" d="M548.63,-251.52C541.31,-243.01 532.33,-232.57 525.02,-224.05"/>
</g>
<!-- 42&#45;&#45;44 -->
<g id="edge128" class="edge">
<title>42&#45;&#45;44</title>
<path fill="none" stroke="black" d="M575.5,-283.26C582.57,-291.75 591.26,-302.17 598.34,-310.67"/>
</g>
<!-- 72 -->
<g id="node57" class="node">
<title>72</title>
<ellipse fill="none" stroke="black" cx="636.71" cy="-253.35" rx="27" ry="18"/>
<text text-anchor="middle" x="636.71" y="-249.65" font-family="Times New Roman,serif" font-size="14.00">72</text>
</g>
<!-- 42&#45;&#45;72 -->
<g id="edge129" class="edge">
<title>42&#45;&#45;72</title>
<path fill="none" stroke="black" d="M588.73,-262.41C595.75,-261.09 603.33,-259.65 610.35,-258.33"/>
</g>
<!-- 73 -->
<g id="node58" class="node">
<title>73</title>
<ellipse fill="none" stroke="black" cx="586.64" cy="-194.33" rx="27" ry="18"/>
<text text-anchor="middle" x="586.64" y="-190.63" font-family="Times New Roman,serif" font-size="14.00">73</text>
</g>
<!-- 42&#45;&#45;73 -->
<g id="edge130" class="edge">
<title>42&#45;&#45;73</title>
<path fill="none" stroke="black" d="M568.18,-249.72C571.95,-238.4 576.83,-223.75 580.63,-212.37"/>
</g>
<!-- 43&#45;&#45;45 -->
<g id="edge131" class="edge">
<title>43&#45;&#45;45</title>
<path fill="none" stroke="black" d="M497.66,-192.23C490.34,-183.72 481.35,-173.27 474.03,-164.76"/>
</g>
<!-- 43&#45;&#45;73 -->
<g id="edge132" class="edge">
<title>43&#45;&#45;73</title>
<path fill="none" stroke="black" d="M537.66,-203.3C544.96,-201.96 552.88,-200.51 560.18,-199.18"/>
</g>
<!-- 75 -->
<g id="node59" class="node">
<title>75</title>
<ellipse fill="none" stroke="black" cx="535.99" cy="-135.23" rx="27" ry="18"/>
<text text-anchor="middle" x="535.99" y="-131.53" font-family="Times New Roman,serif" font-size="14.00">75</text>
</g>
<!-- 43&#45;&#45;75 -->
<g id="edge133" class="edge">
<title>43&#45;&#45;75</title>
<path fill="none" stroke="black" d="M517.42,-190.1C521.24,-178.81 526.15,-164.3 529.96,-153.04"/>
</g>
<!-- 44&#45;&#45;72 -->
<g id="edge134" class="edge">
<title>44&#45;&#45;72</title>
<path fill="none" stroke="black" d="M617.67,-308.84C621.59,-297.42 626.67,-282.61 630.6,-271.16"/>
</g>
<!-- 45&#45;&#45;47 -->
<g id="edge135" class="edge">
<title>45&#45;&#45;47</title>
<path fill="none" stroke="black" d="M446.66,-132.94C439.33,-124.44 430.34,-113.99 423.01,-105.48"/>
</g>
<!-- 45&#45;&#45;75 -->
<g id="edge136" class="edge">
<title>45&#45;&#45;75</title>
<path fill="none" stroke="black" d="M486.79,-144.07C494.21,-142.74 502.27,-141.29 509.67,-139.96"/>
</g>
<!-- 77 -->
<g id="node60" class="node">
<title>77</title>
<ellipse fill="none" stroke="black" cx="485.1" cy="-76.32" rx="27" ry="18"/>
<text text-anchor="middle" x="485.1" y="-72.62" font-family="Times New Roman,serif" font-size="14.00">77</text>
</g>
<!-- 45&#45;&#45;77 -->
<g id="edge137" class="edge">
<title>45&#45;&#45;77</title>
<path fill="none" stroke="black" d="M466.45,-130.9C470.26,-119.75 475.15,-105.45 478.96,-94.29"/>
</g>
<!-- 47&#45;&#45;55 -->
<g id="edge138" class="edge">
<title>47&#45;&#45;55</title>
<path fill="none" stroke="black" d="M395.3,-73.82C388.07,-65.69 379.28,-55.81 372.05,-47.68"/>
</g>
<!-- 47&#45;&#45;77 -->
<g id="edge139" class="edge">
<title>47&#45;&#45;77</title>
<path fill="none" stroke="black" d="M435.81,-84.93C443.24,-83.63 451.31,-82.22 458.73,-80.92"/>
</g>
<!-- 79 -->
<g id="node61" class="node">
<title>79</title>
<ellipse fill="none" stroke="black" cx="434.14" cy="-18" rx="27" ry="18"/>
<text text-anchor="middle" x="434.14" y="-14.3" font-family="Times New Roman,serif" font-size="14.00">79</text>
</g>
<!-- 47&#45;&#45;79 -->
<g id="edge140" class="edge">
<title>47&#45;&#45;79</title>
<path fill="none" stroke="black" d="M415.44,-71.87C419.23,-60.94 424.08,-46.96 427.9,-35.98"/>
</g>
<!-- 49&#45;&#45;51 -->
<g id="edge141" class="edge">
<title>49&#45;&#45;51</title>
<path fill="none" stroke="black" d="M155.42,-70.8C163.05,-69.29 171.4,-67.65 179.04,-66.14"/>
</g>
<!-- 51&#45;&#45;53 -->
<g id="edge142" class="edge">
<title>51&#45;&#45;53</title>
<path fill="none" stroke="black" d="M231.52,-55.94C239.21,-54.47 247.61,-52.86 255.29,-51.39"/>
</g>
<!-- 53&#45;&#45;55 -->
<g id="edge143" class="edge">
<title>53&#45;&#45;55</title>
<path fill="none" stroke="black" d="M307.94,-41.39C315.63,-39.95 324.03,-38.37 331.72,-36.92"/>
</g>
<!-- 55&#45;&#45;79 -->
<g id="edge144" class="edge">
<title>55&#45;&#45;79</title>
<path fill="none" stroke="black" d="M384.25,-27.16C391.81,-25.77 400.07,-24.25 407.65,-22.86"/>
</g>
<!-- 56&#45;&#45;58 -->
<g id="edge145" class="edge">
<title>56&#45;&#45;58</title>
<path fill="none" stroke="black" d="M40.4,-383.98C47.58,-392.44 56.4,-402.83 63.58,-411.29"/>
</g>
<!-- 58&#45;&#45;60 -->
<g id="edge146" class="edge">
<title>58&#45;&#45;60</title>
<path fill="none" stroke="black" d="M90.56,-442.96C97.81,-451.43 106.71,-461.84 113.97,-470.32"/>
</g>
<!-- 60&#45;&#45;62 -->
<g id="edge147" class="edge">
<title>60&#45;&#45;62</title>
<path fill="none" stroke="black" d="M141.12,-501.97C148.39,-510.43 157.32,-520.81 164.6,-529.27"/>
</g>
<!-- 62&#45;&#45;71 -->
<g id="edge148" class="edge">
<title>62&#45;&#45;71</title>
<path fill="none" stroke="black" d="M192.05,-561.05C199.2,-569.3 207.89,-579.32 215.03,-587.56"/>
</g>
<!-- 64&#45;&#45;65 -->
<g id="edge149" class="edge">
<title>64&#45;&#45;65</title>
<path fill="none" stroke="black" d="M507.74,-551.39C500.1,-552.87 491.76,-554.49 484.12,-555.97"/>
</g>
<!-- 65&#45;&#45;67 -->
<g id="edge150" class="edge">
<title>65&#45;&#45;67</title>
<path fill="none" stroke="black" d="M431.64,-566.03C423.95,-567.49 415.55,-569.08 407.86,-570.53"/>
</g>
<!-- 67&#45;&#45;69 -->
<g id="edge151" class="edge">
<title>67&#45;&#45;69</title>
<path fill="none" stroke="black" d="M355.19,-580.42C347.5,-581.85 339.09,-583.41 331.4,-584.84"/>
</g>
<!-- 69&#45;&#45;71 -->
<g id="edge152" class="edge">
<title>69&#45;&#45;71</title>
<path fill="none" stroke="black" d="M278.81,-594.48C271.24,-595.84 262.97,-597.34 255.37,-598.71"/>
</g>
<!-- 72&#45;&#45;73 -->
<g id="edge153" class="edge">
<title>72&#45;&#45;73</title>
<path fill="none" stroke="black" d="M623.29,-237.54C616.11,-229.07 607.28,-218.67 600.09,-210.19"/>
</g>
<!-- 73&#45;&#45;75 -->
<g id="edge154" class="edge">
<title>73&#45;&#45;75</title>
<path fill="none" stroke="black" d="M573.07,-178.5C565.8,-170.02 556.88,-159.6 549.6,-151.12"/>
</g>
<!-- 75&#45;&#45;77 -->
<g id="edge155" class="edge">
<title>75&#45;&#45;77</title>
<path fill="none" stroke="black" d="M522.35,-119.45C515.05,-110.99 506.08,-100.61 498.78,-92.15"/>
</g>
<!-- 77&#45;&#45;79 -->
<g id="edge156" class="edge">
<title>77&#45;&#45;79</title>
<path fill="none" stroke="black" d="M471.17,-60.38C463.98,-52.15 455.23,-42.14 448.05,-33.92"/>
</g>
</g>
</svg>
