<svg xmlns="http://www.w3.org/2000/svg" xmlns:xlink="http://www.w3.org/1999/xlink" xmlns:lucid="lucid" width="1611" height="1260"><g transform="translate(-220 -40)" lucid:page-tab-id="0_0"><path d="M540 222.5v4m0 8.03v8.03m0 8.02v8.02m0 8.02v8.03m0 8.02v8.02m0 8v8.04m0 8.02v8.02m0 8.02v8.03m0 8.02v8.02m0 8.02v8.02m0 8.02v8.02m0 8.03v8m0 8.03v8.02m0 8.03v8.02m0 8.02v8.02m0 8.03v8.02m0 8v8.03m0 8.03v8.02m0 8.02v8.02m0 8.03v8.02m0 8.02v8m0 8.04v8.02m0 8.02v8.02m0 8.03v8.02m0 8.02v8.02m0 8.02v8.02m0 8.02v8.02m0 8.03v8.03m0 8.02v8.02m0 8.03v8.02m0 8.02v8.03m0 8.02v8m0 8.03v8.03m0 8.02V756m0 8.02v8.03m0 8.02v8.02m0 8v8.04m0 8.02v8.02m0 8.02v8.03m0 8.02v8.02m0 8.02v8.02m0 8.02v8.02m0 8.02v8.03m0 8.03v8.02m0 8.02v8.03m0 8.02v8.02m0 8.02v8.03m0 8v8.03m0 8.02v8.03m0 8.02v8.02m0 8.03v8.02m0 8.02v8m0 8.04v8.02m0 8.02v8.02m0 8.03v8.02m0 8.02v8.02m0 8.02v8.02m0 8.02v8.02m0 8.03v8.03m0 8.02v8.02m0 8.03v8.02m0 8.02v8.02m0 8.03v8m0 8.03v4" stroke="#5e5e5e" stroke-width="2" fill="none"/><path d="M541 222.53h-2v-1.03h2z" stroke="#5e5e5e" stroke-width=".05" fill="#5e5e5e"/><path d="M540 1233.32v4.02" stroke="#5e5e5e" stroke-width="2" fill="none"/><path d="M460 106c0-3.3 2.7-6 6-6h148c3.3 0 6 2.7 6 6v108c0 3.3-2.7 6-6 6H466c-3.3 0-6-2.7-6-6z" stroke="#5e5e5e" stroke-width="3" fill="#fff"/><use xlink:href="#a" transform="matrix(1,0,0,1,460,100) translate(45.58 63.15)"/><path d="M720 106c0-3.3 2.7-6 6-6h148c3.3 0 6 2.7 6 6v108c0 3.3-2.7 6-6 6H726c-3.3 0-6-2.7-6-6z" stroke="#5e5e5e" stroke-width="3" fill="#fff"/><use xlink:href="#b" transform="matrix(1,0,0,1,732,112) translate(3.2777777777777715 53.77777777777778)"/><path d="M520 326c0-3.3 2.7-6 6-6h28c3.3 0 6 2.7 6 6v808c0 3.3-2.7 6-6 6h-28c-3.3 0-6-2.7-6-6z" stroke="#5e5e5e" stroke-width="3" fill="#fff"/><path d="M800 222.5v3.97m0 7.94v7.95m0 7.94v7.94m0 7.94v7.94m0 7.94V290m0 7.94v7.94m0 7.95v7.94m0 7.94v7.95m0 7.94v7.93m0 7.94v7.95m0 7.94v7.94m0 7.94v7.94m0 7.94v7.94m0 7.95v7.95m0 7.94v7.93m0 7.94v7.94m0 7.95v7.95m0 7.94v7.94m0 7.94v7.94m0 7.94v7.94m0 7.95v7.93m0 7.94V560m0 7.95v7.94m0 7.93v7.95m0 7.94v7.94m0 7.94v7.94m0 7.94v7.94m0 7.95v7.94m0 7.95v7.94m0 7.93v7.94m0 7.94v7.96m0 7.94v7.94m0 7.94v7.94m0 7.94v7.94m0 7.94v7.95m0 7.93v7.94m0 7.94v7.95m0 7.94v7.93m0 7.95v7.94m0 7.94v7.94m0 7.94v7.94m0 7.94v7.95m0 7.94v7.95m0 7.94v7.93m0 7.94v7.94m0 7.96v7.94m0 7.94v7.94m0 7.94v7.94m0 7.94v7.95m0 7.94v7.93m0 7.94v7.94m0 7.95v7.94m0 7.94v7.94m0 7.94v7.94m0 7.94v7.94m0 7.94v7.95m0 7.94v7.94m0 7.95v7.94m0 7.93v7.94m0 7.95v7.94m0 7.94v7.94m0 7.94v7.94m0 7.94v7.95m0 7.95v7.94m0 7.93v3.97" stroke="#5e5e5e" stroke-width="2" fill="none"/><path d="M801 222.53h-2v-1.03h2z" stroke="#5e5e5e" stroke-width=".05" fill="#5e5e5e"/><path d="M800 1238.97v1.03" stroke="#5e5e5e" stroke-width="2" fill="none"/><path d="M1000 526c0-3.3 2.7-6 6-6h148c3.3 0 6 2.7 6 6v108c0 3.3-2.7 6-6 6h-148c-3.3 0-6-2.7-6-6z" stroke="#5e5e5e" stroke-width="3" fill="#fff"/><use xlink:href="#c" transform="matrix(1,0,0,1,1000,520) translate(57.08 63.15)"/><path d="M822.5 580h3.86m7.72 0h7.73m7.73 0h7.72m7.72 0h7.72m7.72 0h7.72m7.72 0h7.72m7.72 0h7.73m7.72 0h7.72m7.72 0h7.7m7.74 0h3.86" stroke="#5e5e5e" stroke-width="2" fill="none"/><path d="M822.53 581h-1.03v-2h1.03z" stroke="#5e5e5e" stroke-width=".05" fill="#5e5e5e"/><path d="M976.76 580l-14.26 4.64v-9.28z" stroke="#5e5e5e" stroke-width="2" fill="#5e5e5e"/><use xlink:href="#d" transform="matrix(1,0,0,1,867.8024691358024,584) translate(0 14.222222222222223)"/><path d="M1080 642.5v4.03m0 8.06v8.05m0 8.06v8.07m0 8.06v8.07m0 8.06v8.06m0 8.06v8.06m0 8.06v8.06m0 8.06v8.06m0 8.06v8.06m0 8.06v8.07m0 8.06v8.05m0 8.06v8.07m0 8.06V840m0 8.05v8.06m0 8.07v8.06m0 8.06v8.05m0 8.07v8.06m0 8.06v8.06m0 8.06v8.06m0 8.06v8.06m0 8.06v8.06m0 8.06v8.06m0 8.07v8.06m0 8.07v8.06m0 8.06v8.05m0 8.06v8.07m0 8.06v8.06m0 8.05v8.06m0 8.08v8.06m0 8.06v8.06m0 8.06v8.06m0 8.06v8.06m0 8.06v8.06m0 8.06v8.06m0 8.06v8.07m0 8.06v8.06m0 8.05v8.06m0 8.07v4.03" stroke="#5e5e5e" stroke-width="2" fill="none"/><path d="M1081 642.53h-2v-1.03h2z" stroke="#5e5e5e" stroke-width=".05" fill="#5e5e5e"/><path d="M1080 1238.97v1.03M1102.5 669.33h33c3.3 0 6 2.7 6 6v117.34c0 3.3-2.7 6-6 6H1120" stroke="#5e5e5e" stroke-width="2" fill="none"/><path d="M1102.53 670.33h-1.03v-2h1.03z" stroke="#5e5e5e" stroke-width=".05" fill="#5e5e5e"/><path d="M1104.74 798.67l14.26-4.64v9.27z" stroke="#5e5e5e" stroke-width="2" fill="#5e5e5e"/><use xlink:href="#e" transform="matrix(1,0,0,1,1149.5,686.6666666666667) translate(0 14.222222222222223)"/><path d="M1102.5 759h3.9m7.82 0h7.8m7.82 0h7.82m7.8 0h7.82m7.8 0h7.83m7.82 0h7.8m7.82 0h7.82m7.8 0h7.82m7.8 0h7.83m7.82 0h7.8m7.82 0h7.82m7.8 0h7.82m7.8 0H1293.87m7.73 0h7.72m7.72 0h7.73m7.73 0h7.73m7.72 0h7.73m7.73 0h7.73m7.73 0h7.73m7.72 0h7.72m7.73 0h7.73m7.72 0h7.73m7.73 0h7.73m7.73 0h3.87" stroke="#5e5e5e" stroke-width="2" fill="none"/><path d="M1102.53 760h-1.03v-2h1.03z" stroke="#5e5e5e" stroke-width=".05" fill="#5e5e5e"/><path d="M1475.26 759l-14.26 4.64v-9.28z" stroke="#5e5e5e" stroke-width="2" fill="#5e5e5e"/><use xlink:href="#f" transform="matrix(1,0,0,1,1201.003177037037,734.0932800000002) translate(0 13.937813333333333)"/><path d="M1480 706c0-3.3 2.7-6 6-6h148c3.3 0 6 2.7 6 6v108c0 3.3-2.7 6-6 6h-148c-3.3 0-6-2.7-6-6z" stroke="#5e5e5e" stroke-width="3" fill="#fff"/><use xlink:href="#g" transform="matrix(1,0,0,1,1480,700) translate(39.60499999999999 63.15)"/><path d="M822.5 947.1H1040" stroke="#5e5e5e" stroke-width="2" fill="none"/><path d="M822.53 948.1h-1.03v-2h1.03z" stroke="#5e5e5e" stroke-width=".05" fill="#5e5e5e"/><path d="M1055.26 947.1l-14.26 4.65v-9.27z" stroke="#5e5e5e" stroke-width="2" fill="#5e5e5e"/><use xlink:href="#h" transform="matrix(1,0,0,1,905.0617283950618,921.7777777777777) translate(0 14.222222222222223)"/><path d="M1560 822.5v4m0 8v8.02m0 8v8.02m0 8v8.02m0 8v8.02m0 8v8.02m0 8v8.02m0 8v8.02m0 8v8.02m0 8v8.02m0 8v8.02m0 8v8.02m0 8v8.02m0 8v8m0 8.02v8m0 8.02v8m0 8.02v8m0 8.02v8m0 8.02v8m0 8.02v8m0 8.02v8m0 8.02v8m0 8.02v8m0 8.02v8m0 8.02v8m0 8.02v8m0 8.02v4" stroke="#5e5e5e" stroke-width="2" fill="none"/><path d="M1561 822.53h-2v-1.03h2z" stroke="#5e5e5e" stroke-width=".05" fill="#5e5e5e"/><path d="M1560 1238.97v1.03M1102.5 989.33H1520" stroke="#5e5e5e" stroke-width="2" fill="none"/><path d="M1102.53 990.33h-1.03v-2h1.03z" stroke="#5e5e5e" stroke-width=".05" fill="#5e5e5e"/><path d="M1535.26 989.33l-14.26 4.64v-9.27z" stroke="#5e5e5e" stroke-width="2" fill="#5e5e5e"/><use xlink:href="#h" transform="matrix(1,0,0,1,1285.0617283950617,964.0000000000001) translate(0 14.222222222222223)"/><path d="M1538.48 1097.8H1120" stroke="#5e5e5e" stroke-width="2" fill="none"/><path d="M1539.48 1097.8l1 1h-2.03v-2h.76z" stroke="#5e5e5e" stroke-width=".05" fill="#5e5e5e"/><path d="M1104.74 1097.8l14.26-4.63v9.27z" stroke="#5e5e5e" stroke-width="2" fill="#5e5e5e"/><path d="M1057.5 1134.2H840M1057.47 1134.2h1.03" stroke="#5e5e5e" stroke-width="2" fill="none"/><path d="M824.74 1134.2l14.26-4.64v9.27z" stroke="#5e5e5e" stroke-width="2" fill="#5e5e5e"/><path d="M778.48 1137.8H579.03" stroke="#5e5e5e" stroke-width="2" fill="none"/><path d="M779.48 1137.8l1 1h-2.03v-2h.76z" stroke="#5e5e5e" stroke-width=".05" fill="#5e5e5e"/><path d="M563.76 1137.8l14.27-4.63v9.27z" stroke="#5e5e5e" stroke-width="2" fill="#5e5e5e"/><path d="M562.5 525.78H760" stroke="#5e5e5e" stroke-width="2" fill="none"/><path d="M562.53 526.78h-1.03v-2h1.03z" stroke="#5e5e5e" stroke-width=".05" fill="#5e5e5e"/><path d="M775.27 525.78L761 530.4v-9.26z" stroke="#5e5e5e" stroke-width="2" fill="#5e5e5e"/><use xlink:href="#i" transform="matrix(1,0,0,1,652.7932240614668,500.4444444444444) translate(0 14.222222222222223)"/><path d="M1582.5 1040h186.75" stroke="#5e5e5e" stroke-width="2" fill="none"/><path d="M1582.53 1041h-1.03v-2h1.03z" stroke="#5e5e5e" stroke-width=".05" fill="#5e5e5e"/><path d="M1798.6 1040l-14.86 14.85-15.15-14.85 15.14-14.85z" stroke="#5e5e5e" stroke-width="2" fill="#5e5e5e"/><path d="M500 1206c0-3.3 2.7-6 6-6h68c3.3 0 6 2.7 6 6v68c0 3.3-2.7 6-6 6h-68c-3.3 0-6-2.7-6-6z" fill="none"/><path d="M508 1208l64 64m0-64l-64 64" stroke="#5e5e5e" stroke-width="8" fill="none"/><path d="M299.75 89.75c0 10.9-8.84 19.75-19.75 19.75-10.9 0-19.75-8.84-19.75-19.75C260.25 78.85 269.1 70 280 70c10.9 0 19.75 8.84 19.75 19.75z" stroke="#5e5e5e" stroke-width="3" fill="#fff"/><path d="M280 109.5v49.3c0 3.3 1.44 8.27 3.2 11.07L320 228m-40-63.2L240 228m0-98.75h80" stroke="#5e5e5e" stroke-width="3" fill="none"/><path d="M240 76c0-3.3 2.7-6 6-6h68c3.3 0 6 2.7 6 6v168c0 3.3-2.7 6-6 6h-68c-3.3 0-6-2.7-6-6z" fill="none"/><use xlink:href="#j" transform="matrix(1,0,0,1,160,228) translate(94.10493827160494 17.77777777777778)"/><g fill="none"><path d="M281.5 280.75c.4 0 .75.34.75.75v927c0 .4-.34.75-.75.75-.4 0-.75-.34-.75-.75v-927c0-.4.34-.75.75-.75z"/><path d="M282.25 299.33v11.88m0 11.9v11.88m0 11.9v11.87m0 11.88v11.9m0 11.87v11.9m0 11.87v11.9m0 11.87v11.9m0 11.87v11.9m0 11.88v11.9m0 11.87v11.88m0 11.9v11.87m0 11.9v11.87m0 11.9v11.87m0 11.9v11.87m0 11.9v11.88m0 11.9v11.87m0 11.88v11.9m0 11.87v11.9m0 11.87v11.9m0 11.87v11.9m0 11.87v11.9m0 11.88v11.9m0 11.87v11.88m0 11.9v11.87m0 11.9v11.87m0 11.9v11.87m0 11.9v11.87m0 11.9v11.88m0 11.9v11.87m0 11.88v11.9m0 11.87v11.9m0 11.87v11.9m0 11.87v11.9m0 11.87v11.9m0 11.88v11.9m0 11.87v11.88m0 11.9v11.87m0 11.9v11.87m0 11.9v5.93l-.22.53-.53.22-.53-.22-.22-.53v-5.94m0-11.9v-11.87m0-11.9v-11.88m0-11.9v-11.87m0-11.88v-11.9m0-11.87v-11.9m0-11.87v-11.9m0-11.87v-11.9m0-11.87v-11.9m0-11.88v-11.9m0-11.87v-11.88m0-11.9V941.1m0-11.9v-11.87m0-11.9v-11.87m0-11.9V869.8m0-11.9v-11.88m0-11.9v-11.87m0-11.88v-11.9m0-11.87v-11.9m0-11.87v-11.9m0-11.87v-11.9m0-11.87v-11.9m0-11.88v-11.9m0-11.87v-11.88m0-11.9V632.1m0-11.9v-11.87m0-11.9v-11.87m0-11.9V560.8m0-11.9v-11.88m0-11.9v-11.87m0-11.88v-11.9m0-11.87v-11.9m0-11.87v-11.9m0-11.87v-11.9m0-11.87v-11.9m0-11.88v-11.9m0-11.87v-11.88m0-11.9V323.1m0-11.9v-11.87m0-11.9v-5.93l.22-.53.53-.22.53.22.22.53v5.94" stroke="#5e5e5e" stroke-width="1.5"/></g><path d="M284 319.4h220" stroke="#5e5e5e" stroke-width="2" fill="none"/><path d="M284.03 320.4H283v-2h1.03z" stroke="#5e5e5e" stroke-width=".05" fill="#5e5e5e"/><path d="M519.27 319.4L505 324.02v-9.27z" stroke="#5e5e5e" stroke-width="2" fill="#5e5e5e"/><use xlink:href="#k" transform="matrix(1,0,0,1,368.72644148007885,294.0589120627433) translate(0 14.222222222222223)"/><path d="M518.48 1137.8H301.5" stroke="#5e5e5e" stroke-width="2" fill="none"/><path d="M519.48 1137.8l1 1h-2.03v-2h.76z" stroke="#5e5e5e" stroke-width=".05" fill="#5e5e5e"/><path d="M286.24 1137.8l14.26-4.63v9.27z" stroke="#5e5e5e" stroke-width="2" fill="#5e5e5e"/><path d="M562.5 361.33h33c3.3 0 6 2.7 6 6v85.34c0 3.3-2.7 6-6 6H580" stroke="#5e5e5e" stroke-width="2" fill="none"/><path d="M562.53 362.33h-1.03v-2h1.03z" stroke="#5e5e5e" stroke-width=".05" fill="#5e5e5e"/><path d="M564.74 458.67l14.26-4.64v9.27z" stroke="#5e5e5e" stroke-width="2" fill="#5e5e5e"/><use xlink:href="#l" transform="matrix(1,0,0,1,609.5,399.33333333333337) translate(0 14.222222222222223)"/><path d="M1060 646c0-3.3 2.7-6 6-6h28c3.3 0 6 2.7 6 6v168c0 3.3-2.7 6-6 6h-28c-3.3 0-6-2.7-6-6zM1060 946c0-3.3 2.7-6 6-6h28c3.3 0 6 2.7 6 6v188c0 3.3-2.7 6-6 6h-28c-3.3 0-6-2.7-6-6zM1540 986c0-3.3 2.7-6 6-6h28c3.3 0 6 2.7 6 6v108c0 3.3-2.7 6-6 6h-28c-3.3 0-6-2.7-6-6zM780 526c0-3.3 2.7-6 6-6h28c3.3 0 6 2.7 6 6v608c0 3.3-2.7 6-6 6h-28c-3.3 0-6-2.7-6-6zM980 60h128l32 32v282H980z" stroke="#5e5e5e" stroke-width="3" fill="#fff"/><path d="M1108 61.43V92h30.57" stroke="#5e5e5e" stroke-width="3" fill="#fff"/><use xlink:href="#m" transform="matrix(1,0,0,1,985,65) translate(0 14.222222222222218)"/><use xlink:href="#n" transform="matrix(1,0,0,1,985,65) translate(0 35.55555555555554)"/><use xlink:href="#o" transform="matrix(1,0,0,1,985,65) translate(39.45679012345678 35.55555555555554)"/><use xlink:href="#n" transform="matrix(1,0,0,1,985,65) translate(0 56.88888888888887)"/><use xlink:href="#p" transform="matrix(1,0,0,1,985,65) translate(39.45679012345678 56.88888888888887)"/><use xlink:href="#n" transform="matrix(1,0,0,1,985,65) translate(0 78.2222222222222)"/><use xlink:href="#q" transform="matrix(1,0,0,1,985,65) translate(39.45679012345678 78.2222222222222)"/><use xlink:href="#m" transform="matrix(1,0,0,1,985,65) translate(0 99.55555555555553)"/><use xlink:href="#r" transform="matrix(1,0,0,1,985,65) translate(0 120.88888888888886)"/><use xlink:href="#o" transform="matrix(1,0,0,1,985,65) translate(40.44444444444443 120.88888888888886)"/><use xlink:href="#r" transform="matrix(1,0,0,1,985,65) translate(0 142.2222222222222)"/><use xlink:href="#s" transform="matrix(1,0,0,1,985,65) translate(40.44444444444443 142.2222222222222)"/><use xlink:href="#m" transform="matrix(1,0,0,1,985,65) translate(0 163.55555555555554)"/><use xlink:href="#t" transform="matrix(1,0,0,1,985,65) translate(0 184.88888888888886)"/><use xlink:href="#u" transform="matrix(1,0,0,1,985,65) translate(33.58024691358023 184.88888888888886)"/><use xlink:href="#m" transform="matrix(1,0,0,1,985,65) translate(0 206.22222222222217)"/><use xlink:href="#v" transform="matrix(1,0,0,1,985,65) translate(0 227.5555555555555)"/><use xlink:href="#w" transform="matrix(1,0,0,1,985,65) translate(52.34567901234566 227.5555555555555)"/><use xlink:href="#v" transform="matrix(1,0,0,1,985,65) translate(0 248.8888888888888)"/><use xlink:href="#x" transform="matrix(1,0,0,1,985,65) translate(52.34567901234566 248.8888888888888)"/><use xlink:href="#v" transform="matrix(1,0,0,1,985,65) translate(0 270.2222222222221)"/><use xlink:href="#y" transform="matrix(1,0,0,1,985,65) translate(52.34567901234566 270.2222222222221)"/><use xlink:href="#z" transform="matrix(1,0,0,1,985,65) translate(0 295.111111111111)"/><path d="M977.58 216.62l-95.16-39.24" stroke="#5e5e5e" stroke-width="2" fill="none"/><path d="M978.5 215.92v2.16l-1.33-.55.76-1.85zM882.83 176.47l-.76 1.85-.57-.24v-2.16z" stroke="#5e5e5e" stroke-width=".05" fill="#5e5e5e"/><defs><path d="M114-163C36-179 61-72 57 0H25l-1-190h30c1 12-1 29 2 39 6-27 23-49 58-41v29" id="A"/><path d="M100-194c62-1 85 37 85 99 1 63-27 99-86 99S16-35 15-95c0-66 28-99 85-99zM99-20c44 1 53-31 53-75 0-43-8-75-51-75s-53 32-53 75 10 74 51 75" id="B"/><path d="M59-47c-2 24 18 29 38 22v24C64 9 27 4 27-40v-127H5v-23h24l9-43h21v43h35v23H59v120" id="C"/><path d="M212-179c-10-28-35-45-73-45-59 0-87 40-87 99 0 60 29 101 89 101 43 0 62-24 78-52l27 14C228-24 195 4 139 4 59 4 22-46 18-125c-6-104 99-153 187-111 19 9 31 26 39 46" id="D"/><path d="M210-169c-67 3-38 105-44 169h-31v-121c0-29-5-50-35-48C34-165 62-65 56 0H25l-1-190h30c1 10-1 24 2 32 10-44 99-50 107 0 11-21 27-35 58-36 85-2 47 119 55 194h-31v-121c0-29-5-49-35-48" id="E"/><path d="M85-194c31 0 48 13 60 33l-1-100h32l1 261h-30c-2-10 0-23-3-31C134-8 116 4 85 4 32 4 16-35 15-94c0-66 23-100 70-100zm9 24c-40 0-46 34-46 75 0 40 6 74 45 74 42 0 51-32 51-76 0-42-9-74-50-73" id="F"/><g id="a"><use transform="matrix(0.05,0,0,0.05,0,0)" xlink:href="#A"/><use transform="matrix(0.05,0,0,0.05,5.95,0)" xlink:href="#B"/><use transform="matrix(0.05,0,0,0.05,15.949999999999998,0)" xlink:href="#B"/><use transform="matrix(0.05,0,0,0.05,25.950000000000003,0)" xlink:href="#C"/><use transform="matrix(0.05,0,0,0.05,30.950000000000003,0)" xlink:href="#D"/><use transform="matrix(0.05,0,0,0.05,43.9,0)" xlink:href="#E"/><use transform="matrix(0.05,0,0,0.05,58.85,0)" xlink:href="#F"/><path d="M-.9 1.25h70.65v1.32H-.9z"/></g><path fill="#333" d="M210-169c-67 3-38 105-44 169h-31v-121c0-29-5-50-35-48C34-165 62-65 56 0H25l-1-190h30c1 10-1 24 2 32 10-44 99-50 107 0 11-21 27-35 58-36 85-2 47 119 55 194h-31v-121c0-29-5-49-35-48" id="G"/><path fill="#333" d="M141-36C126-15 110 5 73 4 37 3 15-17 15-53c-1-64 63-63 125-63 3-35-9-54-41-54-24 1-41 7-42 31l-33-3c5-37 33-52 76-52 45 0 72 20 72 64v82c-1 20 7 32 28 27v20c-31 9-61-2-59-35zM48-53c0 20 12 33 32 33 41-3 63-29 60-74-43 2-92-5-92 41" id="H"/><path fill="#333" d="M115-194c55 1 70 41 70 98S169 2 115 4C84 4 66-9 55-30l1 105H24l-1-265h31l2 30c10-21 28-34 59-34zm-8 174c40 0 45-34 45-75s-6-73-45-74c-42 0-51 32-51 76 0 43 10 73 51 73" id="I"/><path fill="#333" d="M205 0l-28-72H64L36 0H1l101-248h38L239 0h-34zm-38-99l-47-123c-12 45-31 82-46 123h93" id="J"/><path fill="#333" d="M85-194c31 0 48 13 60 33l-1-100h32l1 261h-30c-2-10 0-23-3-31C134-8 116 4 85 4 32 4 16-35 15-94c0-66 23-100 70-100zm9 24c-40 0-46 34-46 75 0 40 6 74 45 74 42 0 51-32 51-76 0-42-9-74-50-73" id="K"/><path fill="#333" d="M212-179c-10-28-35-45-73-45-59 0-87 40-87 99 0 60 29 101 89 101 43 0 62-24 78-52l27 14C228-24 195 4 139 4 59 4 22-46 18-125c-6-104 99-153 187-111 19 9 31 26 39 46" id="L"/><g id="b"><use transform="matrix(0.06172839506172839,0,0,0.06172839506172839,0,0)" xlink:href="#G"/><use transform="matrix(0.06172839506172839,0,0,0.06172839506172839,18.456790123456788,0)" xlink:href="#H"/><use transform="matrix(0.06172839506172839,0,0,0.06172839506172839,30.80246913580247,0)" xlink:href="#I"/><use transform="matrix(0.06172839506172839,0,0,0.06172839506172839,43.148148148148145,0)" xlink:href="#J"/><use transform="matrix(0.06172839506172839,0,0,0.06172839506172839,57.96296296296296,0)" xlink:href="#K"/><use transform="matrix(0.06172839506172839,0,0,0.06172839506172839,70.30864197530865,0)" xlink:href="#K"/><use transform="matrix(0.06172839506172839,0,0,0.06172839506172839,82.65432098765433,0)" xlink:href="#L"/><use transform="matrix(0.06172839506172839,0,0,0.06172839506172839,98.64197530864199,0)" xlink:href="#G"/><use transform="matrix(0.06172839506172839,0,0,0.06172839506172839,117.09876543209877,0)" xlink:href="#K"/></g><path d="M24 0v-261h32V0H24" id="M"/><path d="M24-231v-30h32v30H24zM24 0v-190h32V0H24" id="N"/><path d="M100-194c63 0 86 42 84 106H49c0 40 14 67 53 68 26 1 43-12 49-29l28 8c-11 28-37 45-77 45C44 4 14-33 15-96c1-61 26-98 85-98zm52 81c6-60-76-77-97-28-3 7-6 17-6 28h103" id="O"/><path d="M117-194c89-4 53 116 60 194h-32v-121c0-31-8-49-39-48C34-167 62-67 57 0H25l-1-190h30c1 10-1 24 2 32 11-22 29-35 61-36" id="P"/><g id="c"><use transform="matrix(0.05,0,0,0.05,0,0)" xlink:href="#D"/><use transform="matrix(0.05,0,0,0.05,12.950000000000001,0)" xlink:href="#M"/><use transform="matrix(0.05,0,0,0.05,16.900000000000002,0)" xlink:href="#N"/><use transform="matrix(0.05,0,0,0.05,20.85,0)" xlink:href="#O"/><use transform="matrix(0.05,0,0,0.05,30.85,0)" xlink:href="#P"/><use transform="matrix(0.05,0,0,0.05,40.85,0)" xlink:href="#C"/><path d="M-.9 1.25h47.65v1.32H-.9z"/></g><path fill="#333" d="M175 0L67-191c6 58 2 128 3 191H24v-248h59L193-55c-6-58-2-129-3-193h46V0h-61" id="Q"/><path fill="#333" d="M185-48c-13 30-37 53-82 52C43 2 14-33 14-96s30-98 90-98c62 0 83 45 84 108H66c0 31 8 55 39 56 18 0 30-7 34-22zm-45-69c5-46-57-63-70-21-2 6-4 13-4 21h74" id="R"/><path fill="#333" d="M231 0h-52l-39-155L100 0H48L-1-190h46L77-45c9-52 24-97 36-145h53l37 145 32-145h46" id="S"/><path fill="#333" d="M67-125c0 53 21 87 73 88 37 1 54-22 65-47l45 17C233-25 199 4 140 4 58 4 20-42 15-125 8-235 124-281 211-232c18 10 29 29 36 50l-46 12c-8-25-30-41-62-41-52 0-71 34-72 86" id="T"/><path fill="#333" d="M25 0v-261h50V0H25" id="U"/><path fill="#333" d="M25-224v-37h50v37H25zM25 0v-190h50V0H25" id="V"/><path fill="#333" d="M135-194c87-1 58 113 63 194h-50c-7-57 23-157-34-157-59 0-34 97-39 157H25l-1-190h47c2 12-1 28 3 38 12-26 28-41 61-42" id="W"/><path fill="#333" d="M115-3C79 11 28 4 28-45v-112H4v-33h27l15-45h31v45h36v33H77v99c-1 23 16 31 38 25v30" id="X"/><g id="d"><use transform="matrix(0.04938271604938272,0,0,0.04938271604938272,0,0)" xlink:href="#Q"/><use transform="matrix(0.04938271604938272,0,0,0.04938271604938272,12.790123456790125,0)" xlink:href="#R"/><use transform="matrix(0.04938271604938272,0,0,0.04938271604938272,22.66666666666667,0)" xlink:href="#S"/><use transform="matrix(0.04938271604938272,0,0,0.04938271604938272,36.49382716049384,0)" xlink:href="#T"/><use transform="matrix(0.04938271604938272,0,0,0.04938271604938272,49.28395061728396,0)" xlink:href="#U"/><use transform="matrix(0.04938271604938272,0,0,0.04938271604938272,54.222222222222236,0)" xlink:href="#V"/><use transform="matrix(0.04938271604938272,0,0,0.04938271604938272,59.16049382716051,0)" xlink:href="#R"/><use transform="matrix(0.04938271604938272,0,0,0.04938271604938272,69.03703703703705,0)" xlink:href="#W"/><use transform="matrix(0.04938271604938272,0,0,0.04938271604938272,79.85185185185186,0)" xlink:href="#X"/></g><path fill="#333" d="M110-194c64 0 96 36 96 99 0 64-35 99-97 99-61 0-95-36-95-99 0-62 34-99 96-99zm-1 164c35 0 45-28 45-65 0-40-10-65-43-65-34 0-45 26-45 65 0 36 10 65 43 65" id="Y"/><path fill="#333" d="M190-63c-7 42-38 67-86 67-59 0-84-38-90-98-12-110 154-137 174-36l-49 2c-2-19-15-32-35-32-30 0-35 28-38 64-6 74 65 87 74 30" id="Z"/><g id="e"><use transform="matrix(0.04938271604938272,0,0,0.04938271604938272,0,0)" xlink:href="#T"/><use transform="matrix(0.04938271604938272,0,0,0.04938271604938272,12.790123456790125,0)" xlink:href="#Y"/><use transform="matrix(0.04938271604938272,0,0,0.04938271604938272,23.60493827160494,0)" xlink:href="#W"/><use transform="matrix(0.04938271604938272,0,0,0.04938271604938272,34.41975308641975,0)" xlink:href="#W"/><use transform="matrix(0.04938271604938272,0,0,0.04938271604938272,45.23456790123457,0)" xlink:href="#R"/><use transform="matrix(0.04938271604938272,0,0,0.04938271604938272,55.111111111111114,0)" xlink:href="#Z"/><use transform="matrix(0.04938271604938272,0,0,0.04938271604938272,64.98765432098766,0)" xlink:href="#X"/></g><path fill="#36666b" d="M175 0L67-191c6 58 2 128 3 191H24v-248h59L193-55c-6-58-2-129-3-193h46V0h-61" id="aa"/><path fill="#36666b" d="M185-48c-13 30-37 53-82 52C43 2 14-33 14-96s30-98 90-98c62 0 83 45 84 108H66c0 31 8 55 39 56 18 0 30-7 34-22zm-45-69c5-46-57-63-70-21-2 6-4 13-4 21h74" id="ab"/><path fill="#36666b" d="M231 0h-52l-39-155L100 0H48L-1-190h46L77-45c9-52 24-97 36-145h53l37 145 32-145h46" id="ac"/><path fill="#36666b" d="M186 0v-106H76V0H24v-248h52v99h110v-99h50V0h-50" id="ad"/><path fill="#36666b" d="M144 0l-44-69L55 0H2l70-98-66-92h53l41 62 40-62h54l-67 91 71 99h-54" id="ae"/><path fill="#36666b" d="M133-34C117-15 103 5 69 4 32 3 11-16 11-54c-1-60 55-63 116-61 1-26-3-47-28-47-18 1-26 9-28 27l-52-2c7-38 36-58 82-57s74 22 75 68l1 82c-1 14 12 18 25 15v27c-30 8-71 5-69-32zm-48 3c29 0 43-24 42-57-32 0-66-3-65 30 0 17 8 27 23 27" id="af"/><path fill="#36666b" d="M195-6C206 82 75 100 31 46c-4-6-6-13-8-21l49-6c3 16 16 24 34 25 40 0 42-37 40-79-11 22-30 35-61 35-53 0-70-43-70-97 0-56 18-96 73-97 30 0 46 14 59 34l2-30h47zm-90-29c32 0 41-27 41-63 0-35-9-62-40-62-32 0-39 29-40 63 0 36 9 62 39 62" id="ag"/><path fill="#36666b" d="M110-194c64 0 96 36 96 99 0 64-35 99-97 99-61 0-95-36-95-99 0-62 34-99 96-99zm-1 164c35 0 45-28 45-65 0-40-10-65-43-65-34 0-45 26-45 65 0 36 10 65 43 65" id="ah"/><path fill="#36666b" d="M135-194c87-1 58 113 63 194h-50c-7-57 23-157-34-157-59 0-34 97-39 157H25l-1-190h47c2 12-1 28 3 38 12-26 28-41 61-42" id="ai"/><path fill="#36666b" d="M169-182c-1-43-94-46-97-3 18 66 151 10 154 114 3 95-165 93-204 36-6-8-10-19-12-30l50-8c3 46 112 56 116 5-17-69-150-10-154-114-4-87 153-88 188-35 5 8 8 18 10 28" id="aj"/><path fill="#36666b" d="M135-150c-39-12-60 13-60 57V0H25l-1-190h47c2 13-1 29 3 40 6-28 27-53 61-41v41" id="ak"/><path fill="#36666b" d="M128 0H69L1-190h53L99-40l48-150h52" id="al"/><path fill="#36666b" d="M25-224v-37h50v37H25zM25 0v-190h50V0H25" id="am"/><path fill="#36666b" d="M190-63c-7 42-38 67-86 67-59 0-84-38-90-98-12-110 154-137 174-36l-49 2c-2-19-15-32-35-32-30 0-35 28-38 64-6 74 65 87 74 30" id="an"/><path fill="#36666b" d="M67-125c0 53 21 87 73 88 37 1 54-22 65-47l45 17C233-25 199 4 140 4 58 4 20-42 15-125 8-235 124-281 211-232c18 10 29 29 36 50l-46 12c-8-25-30-41-62-41-52 0-71 34-72 86" id="ao"/><path fill="#36666b" d="M25 0v-261h50V0H25" id="ap"/><path fill="#36666b" d="M115-3C79 11 28 4 28-45v-112H4v-33h27l15-45h31v45h36v33H77v99c-1 23 16 31 38 25v30" id="aq"/><g id="f"><use transform="matrix(0.04839518518518518,0,0,0.04839518518518518,0,0)" xlink:href="#aa"/><use transform="matrix(0.04839518518518518,0,0,0.04839518518518518,12.534352962962961,0)" xlink:href="#ab"/><use transform="matrix(0.04839518518518518,0,0,0.04839518518518518,22.213389999999997,0)" xlink:href="#ac"/><use transform="matrix(0.04839518518518518,0,0,0.04839518518518518,35.76404185185184,0)" xlink:href="#ad"/><use transform="matrix(0.04839518518518518,0,0,0.04839518518518518,48.298394814814806,0)" xlink:href="#ab"/><use transform="matrix(0.04839518518518518,0,0,0.04839518518518518,57.97743185185183,0)" xlink:href="#ae"/><use transform="matrix(0.04839518518518518,0,0,0.04839518518518518,67.65646888888888,0)" xlink:href="#af"/><use transform="matrix(0.04839518518518518,0,0,0.04839518518518518,77.33550592592591,0)" xlink:href="#ag"/><use transform="matrix(0.04839518518518518,0,0,0.04839518518518518,87.93405148148148,0)" xlink:href="#ah"/><use transform="matrix(0.04839518518518518,0,0,0.04839518518518518,98.53259703703704,0)" xlink:href="#ai"/><use transform="matrix(0.04839518518518518,0,0,0.04839518518518518,109.1311425925926,0)" xlink:href="#aj"/><use transform="matrix(0.04839518518518518,0,0,0.04839518518518518,120.74598703703704,0)" xlink:href="#ab"/><use transform="matrix(0.04839518518518518,0,0,0.04839518518518518,130.4250240740741,0)" xlink:href="#ak"/><use transform="matrix(0.04839518518518518,0,0,0.04839518518518518,137.20035000000001,0)" xlink:href="#al"/><use transform="matrix(0.04839518518518518,0,0,0.04839518518518518,146.87938703703705,0)" xlink:href="#am"/><use transform="matrix(0.04839518518518518,0,0,0.04839518518518518,151.71890555555558,0)" xlink:href="#an"/><use transform="matrix(0.04839518518518518,0,0,0.04839518518518518,161.3979425925926,0)" xlink:href="#ab"/><use transform="matrix(0.04839518518518518,0,0,0.04839518518518518,171.07697962962965,0)" xlink:href="#ao"/><use transform="matrix(0.04839518518518518,0,0,0.04839518518518518,183.61133259259262,0)" xlink:href="#ap"/><use transform="matrix(0.04839518518518518,0,0,0.04839518518518518,188.45085111111115,0)" xlink:href="#am"/><use transform="matrix(0.04839518518518518,0,0,0.04839518518518518,193.29036962962968,0)" xlink:href="#ab"/><use transform="matrix(0.04839518518518518,0,0,0.04839518518518518,202.96940666666674,0)" xlink:href="#ai"/><use transform="matrix(0.04839518518518518,0,0,0.04839518518518518,213.56795222222223,0)" xlink:href="#aq"/></g><path d="M177-190C167-65 218 103 67 71c-23-6-38-20-44-43l32-5c15 47 100 32 89-28v-30C133-14 115 1 83 1 29 1 15-40 15-95c0-56 16-97 71-98 29-1 48 16 59 35 1-10 0-23 2-32h30zM94-22c36 0 50-32 50-73 0-42-14-75-50-75-39 0-46 34-46 75s6 73 46 73" id="ar"/><path d="M115-194c55 1 70 41 70 98S169 2 115 4C84 4 66-9 55-30l1 105H24l-1-265h31l2 30c10-21 28-34 59-34zm-8 174c40 0 45-34 45-75s-6-73-45-74c-42 0-51 32-51 76 0 43 10 73 51 73" id="as"/><path d="M96-169c-40 0-48 33-48 73s9 75 48 75c24 0 41-14 43-38l32 2c-6 37-31 61-74 61-59 0-76-41-82-99-10-93 101-131 147-64 4 7 5 14 7 22l-32 3c-4-21-16-35-41-35" id="at"/><g id="g"><use transform="matrix(0.05,0,0,0.05,0,0)" xlink:href="#ar"/><use transform="matrix(0.05,0,0,0.05,10,0)" xlink:href="#A"/><use transform="matrix(0.05,0,0,0.05,15.949999999999998,0)" xlink:href="#as"/><use transform="matrix(0.05,0,0,0.05,25.950000000000003,0)" xlink:href="#at"/><use transform="matrix(0.05,0,0,0.05,34.95,0)" xlink:href="#D"/><use transform="matrix(0.05,0,0,0.05,47.900000000000006,0)" xlink:href="#M"/><use transform="matrix(0.05,0,0,0.05,51.85,0)" xlink:href="#N"/><use transform="matrix(0.05,0,0,0.05,55.80000000000001,0)" xlink:href="#O"/><use transform="matrix(0.05,0,0,0.05,65.80000000000001,0)" xlink:href="#P"/><use transform="matrix(0.05,0,0,0.05,75.80000000000001,0)" xlink:href="#C"/><path d="M-.9 1.25h82.6v1.32H-.9z"/></g><path fill="#333" d="M230 0l2-204L168 0h-37L68-204 70 0H24v-248h70l56 185 57-185h69V0h-46" id="au"/><path fill="#333" d="M133-34C117-15 103 5 69 4 32 3 11-16 11-54c-1-60 55-63 116-61 1-26-3-47-28-47-18 1-26 9-28 27l-52-2c7-38 36-58 82-57s74 22 75 68l1 82c-1 14 12 18 25 15v27c-30 8-71 5-69-32zm-48 3c29 0 43-24 42-57-32 0-66-3-65 30 0 17 8 27 23 27" id="av"/><path fill="#333" d="M135-194c53 0 70 44 70 98 0 56-19 98-73 100-31 1-45-17-59-34 3 33 2 69 2 105H25l-1-265h48c2 10 0 23 3 31 11-24 29-35 60-35zM114-30c33 0 39-31 40-66 0-38-9-64-40-64-56 0-55 130 0 130" id="aw"/><path fill="#333" d="M199 0l-22-63H83L61 0H9l90-248h61L250 0h-51zm-33-102l-36-108c-10 38-24 72-36 108h72" id="ax"/><path fill="#333" d="M88-194c31-1 46 15 58 34l-1-101h50l1 261h-48c-2-10 0-23-3-31C134-8 116 4 84 4 32 4 16-41 15-95c0-56 19-97 73-99zm17 164c33 0 40-30 41-66 1-37-9-64-41-64s-38 30-39 65c0 43 13 65 39 65" id="ay"/><g id="h"><use transform="matrix(0.04938271604938272,0,0,0.04938271604938272,0,0)" xlink:href="#au"/><use transform="matrix(0.04938271604938272,0,0,0.04938271604938272,14.765432098765434,0)" xlink:href="#av"/><use transform="matrix(0.04938271604938272,0,0,0.04938271604938272,24.641975308641978,0)" xlink:href="#aw"/><use transform="matrix(0.04938271604938272,0,0,0.04938271604938272,35.45679012345679,0)" xlink:href="#ax"/><use transform="matrix(0.04938271604938272,0,0,0.04938271604938272,48.24691358024692,0)" xlink:href="#ay"/><use transform="matrix(0.04938271604938272,0,0,0.04938271604938272,59.061728395061735,0)" xlink:href="#ay"/></g><path fill="#333" d="M240-174c0 40-23 61-54 70L253 0h-59l-57-94H76V0H24v-248c93 4 217-23 216 74zM76-134c48-2 112 12 112-38 0-48-66-32-112-35v73" id="az"/><path fill="#333" d="M85 4C-2 5 27-109 22-190h50c7 57-23 150 33 157 60-5 35-97 40-157h50l1 190h-47c-2-12 1-28-3-38-12 25-28 42-61 42" id="aA"/><g id="i"><use transform="matrix(0.04938271604938272,0,0,0.04938271604938272,0,0)" xlink:href="#az"/><use transform="matrix(0.04938271604938272,0,0,0.04938271604938272,12.790123456790125,0)" xlink:href="#aA"/><use transform="matrix(0.04938271604938272,0,0,0.04938271604938272,23.60493827160494,0)" xlink:href="#W"/></g><path fill="#333" d="M96-169c-40 0-48 33-48 73s9 75 48 75c24 0 41-14 43-38l32 2c-6 37-31 61-74 61-59 0-76-41-82-99-10-93 101-131 147-64 4 7 5 14 7 22l-32 3c-4-21-16-35-41-35" id="aB"/><path fill="#333" d="M59-47c-2 24 18 29 38 22v24C64 9 27 4 27-40v-127H5v-23h24l9-43h21v43h35v23H59v120" id="aC"/><path fill="#333" d="M100-194c62-1 85 37 85 99 1 63-27 99-86 99S16-35 15-95c0-66 28-99 85-99zM99-20c44 1 53-31 53-75 0-43-8-75-51-75s-53 32-53 75 10 74 51 75" id="aD"/><path fill="#333" d="M114-163C36-179 61-72 57 0H25l-1-190h30c1 12-1 29 2 39 6-27 23-49 58-41v29" id="aE"/><g id="j"><use transform="matrix(0.06172839506172839,0,0,0.06172839506172839,0,0)" xlink:href="#J"/><use transform="matrix(0.06172839506172839,0,0,0.06172839506172839,14.814814814814813,0)" xlink:href="#aB"/><use transform="matrix(0.06172839506172839,0,0,0.06172839506172839,25.925925925925924,0)" xlink:href="#aC"/><use transform="matrix(0.06172839506172839,0,0,0.06172839506172839,32.098765432098766,0)" xlink:href="#aD"/><use transform="matrix(0.06172839506172839,0,0,0.06172839506172839,44.44444444444444,0)" xlink:href="#aE"/></g><path fill="#333" d="M24 0v-248h195v40H76v63h132v40H76v65h150V0H24" id="aF"/><path fill="#333" d="M144 0l-44-69L55 0H2l70-98-66-92h53l41 62 40-62h54l-67 91 71 99h-54" id="aG"/><g id="k"><use transform="matrix(0.04938271604938272,0,0,0.04938271604938272,0,0)" xlink:href="#aF"/><use transform="matrix(0.04938271604938272,0,0,0.04938271604938272,11.851851851851853,0)" xlink:href="#aG"/><use transform="matrix(0.04938271604938272,0,0,0.04938271604938272,21.7283950617284,0)" xlink:href="#R"/><use transform="matrix(0.04938271604938272,0,0,0.04938271604938272,31.60493827160494,0)" xlink:href="#Z"/><use transform="matrix(0.04938271604938272,0,0,0.04938271604938272,41.48148148148149,0)" xlink:href="#aA"/><use transform="matrix(0.04938271604938272,0,0,0.04938271604938272,52.2962962962963,0)" xlink:href="#X"/><use transform="matrix(0.04938271604938272,0,0,0.04938271604938272,58.17283950617284,0)" xlink:href="#R"/></g><path fill="#333" d="M24 0v-248h52V0H24" id="aH"/><g id="l"><use transform="matrix(0.04938271604938272,0,0,0.04938271604938272,0,0)" xlink:href="#aH"/><use transform="matrix(0.04938271604938272,0,0,0.04938271604938272,4.938271604938272,0)" xlink:href="#W"/><use transform="matrix(0.04938271604938272,0,0,0.04938271604938272,15.753086419753087,0)" xlink:href="#V"/><use transform="matrix(0.04938271604938272,0,0,0.04938271604938272,20.69135802469136,0)" xlink:href="#X"/></g><g id="n"><use transform="matrix(0.0493827160493827,0,0,0.0493827160493827,0,0)" xlink:href="#G"/><use transform="matrix(0.0493827160493827,0,0,0.0493827160493827,14.765432098765427,0)" xlink:href="#H"/><use transform="matrix(0.0493827160493827,0,0,0.0493827160493827,24.641975308641968,0)" xlink:href="#I"/></g><g id="o"><use transform="matrix(0.0493827160493827,0,0,0.0493827160493827,0,0)" xlink:href="#H"/><use transform="matrix(0.0493827160493827,0,0,0.0493827160493827,9.876543209876539,0)" xlink:href="#K"/><use transform="matrix(0.0493827160493827,0,0,0.0493827160493827,19.753086419753078,0)" xlink:href="#K"/></g><path fill="#333" d="M177-190C167-65 218 103 67 71c-23-6-38-20-44-43l32-5c15 47 100 32 89-28v-30C133-14 115 1 83 1 29 1 15-40 15-95c0-56 16-97 71-98 29-1 48 16 59 35 1-10 0-23 2-32h30zM94-22c36 0 50-32 50-73 0-42-14-75-50-75-39 0-46 34-46 75s6 73 46 73" id="aI"/><path fill="#333" d="M100-194c63 0 86 42 84 106H49c0 40 14 67 53 68 26 1 43-12 49-29l28 8c-11 28-37 45-77 45C44 4 14-33 15-96c1-61 26-98 85-98zm52 81c6-60-76-77-97-28-3 7-6 17-6 28h103" id="aJ"/><g id="p"><use transform="matrix(0.0493827160493827,0,0,0.0493827160493827,0,0)" xlink:href="#aI"/><use transform="matrix(0.0493827160493827,0,0,0.0493827160493827,9.876543209876539,0)" xlink:href="#aJ"/><use transform="matrix(0.0493827160493827,0,0,0.0493827160493827,19.753086419753078,0)" xlink:href="#aC"/></g><g id="q"><use transform="matrix(0.0493827160493827,0,0,0.0493827160493827,0,0)" xlink:href="#aE"/><use transform="matrix(0.0493827160493827,0,0,0.0493827160493827,5.876543209876541,0)" xlink:href="#G"/></g><g id="r"><use transform="matrix(0.0493827160493827,0,0,0.0493827160493827,0,0)" xlink:href="#aE"/><use transform="matrix(0.0493827160493827,0,0,0.0493827160493827,5.876543209876541,0)" xlink:href="#aJ"/><use transform="matrix(0.0493827160493827,0,0,0.0493827160493827,15.753086419753082,0)" xlink:href="#I"/><use transform="matrix(0.0493827160493827,0,0,0.0493827160493827,25.629629629629623,0)" xlink:href="#aD"/></g><path fill="#333" d="M24 0v-261h32V0H24" id="aK"/><g id="s"><use transform="matrix(0.0493827160493827,0,0,0.0493827160493827,0,0)" xlink:href="#K"/><use transform="matrix(0.0493827160493827,0,0,0.0493827160493827,9.876543209876539,0)" xlink:href="#aJ"/><use transform="matrix(0.0493827160493827,0,0,0.0493827160493827,19.753086419753078,0)" xlink:href="#aK"/></g><path fill="#333" d="M106-169C34-169 62-67 57 0H25v-261h32l-1 103c12-21 28-36 61-36 89 0 53 116 60 194h-32v-121c2-32-8-49-39-48" id="aL"/><path fill="#333" d="M141 0L90-78 38 0H4l68-98-65-92h35l48 74 47-74h35l-64 92 68 98h-35" id="aM"/><g id="t"><use transform="matrix(0.0493827160493827,0,0,0.0493827160493827,0,0)" xlink:href="#aL"/><use transform="matrix(0.0493827160493827,0,0,0.0493827160493827,9.876543209876539,0)" xlink:href="#aJ"/><use transform="matrix(0.0493827160493827,0,0,0.0493827160493827,19.753086419753078,0)" xlink:href="#aM"/></g><path fill="#333" d="M24-231v-30h32v30H24zM24 0v-190h32V0H24" id="aN"/><path fill="#333" d="M117-194c89-4 53 116 60 194h-32v-121c0-31-8-49-39-48C34-167 62-67 57 0H25l-1-190h30c1 10-1 24 2 32 11-22 29-35 61-36" id="aO"/><path fill="#333" d="M101-234c-31-9-42 10-38 44h38v23H63V0H32v-167H5v-23h27c-7-52 17-82 69-68v24" id="aP"/><g id="u"><use transform="matrix(0.0493827160493827,0,0,0.0493827160493827,0,0)" xlink:href="#aN"/><use transform="matrix(0.0493827160493827,0,0,0.0493827160493827,3.9012345679012332,0)" xlink:href="#aO"/><use transform="matrix(0.0493827160493827,0,0,0.0493827160493827,13.77777777777777,0)" xlink:href="#aP"/><use transform="matrix(0.0493827160493827,0,0,0.0493827160493827,18.71604938271604,0)" xlink:href="#aD"/></g><path fill="#333" d="M135-143c-3-34-86-38-87 0 15 53 115 12 119 90S17 21 10-45l28-5c4 36 97 45 98 0-10-56-113-15-118-90-4-57 82-63 122-42 12 7 21 19 24 35" id="aQ"/><path fill="#333" d="M84 4C-5 8 30-112 23-190h32v120c0 31 7 50 39 49 72-2 45-101 50-169h31l1 190h-30c-1-10 1-25-2-33-11 22-28 36-60 37" id="aR"/><g id="v"><use transform="matrix(0.0493827160493827,0,0,0.0493827160493827,0,0)" xlink:href="#aQ"/><use transform="matrix(0.0493827160493827,0,0,0.0493827160493827,8.888888888888886,0)" xlink:href="#aC"/><use transform="matrix(0.0493827160493827,0,0,0.0493827160493827,13.827160493827153,0)" xlink:href="#H"/><use transform="matrix(0.0493827160493827,0,0,0.0493827160493827,23.703703703703695,0)" xlink:href="#aC"/><use transform="matrix(0.0493827160493827,0,0,0.0493827160493827,28.641975308641964,0)" xlink:href="#aR"/><use transform="matrix(0.0493827160493827,0,0,0.0493827160493827,38.518518518518505,0)" xlink:href="#aQ"/></g><path fill="#333" d="M108 0H70L1-190h34L89-25l56-165h34" id="aS"/><g id="w"><use transform="matrix(0.0493827160493827,0,0,0.0493827160493827,0,0)" xlink:href="#aQ"/><use transform="matrix(0.0493827160493827,0,0,0.0493827160493827,8.888888888888886,0)" xlink:href="#aJ"/><use transform="matrix(0.0493827160493827,0,0,0.0493827160493827,18.765432098765423,0)" xlink:href="#aE"/><use transform="matrix(0.0493827160493827,0,0,0.0493827160493827,24.641975308641964,0)" xlink:href="#aS"/><use transform="matrix(0.0493827160493827,0,0,0.0493827160493827,33.530864197530846,0)" xlink:href="#aJ"/><use transform="matrix(0.0493827160493827,0,0,0.0493827160493827,43.40740740740738,0)" xlink:href="#aE"/></g><g id="x"><use transform="matrix(0.0493827160493827,0,0,0.0493827160493827,0,0)" xlink:href="#aQ"/><use transform="matrix(0.0493827160493827,0,0,0.0493827160493827,8.888888888888886,0)" xlink:href="#aC"/><use transform="matrix(0.0493827160493827,0,0,0.0493827160493827,13.827160493827153,0)" xlink:href="#aD"/><use transform="matrix(0.0493827160493827,0,0,0.0493827160493827,23.703703703703695,0)" xlink:href="#aE"/><use transform="matrix(0.0493827160493827,0,0,0.0493827160493827,29.580246913580236,0)" xlink:href="#H"/><use transform="matrix(0.0493827160493827,0,0,0.0493827160493827,39.45679012345678,0)" xlink:href="#aI"/><use transform="matrix(0.0493827160493827,0,0,0.0493827160493827,49.333333333333314,0)" xlink:href="#aJ"/></g><g id="y"><use transform="matrix(0.0493827160493827,0,0,0.0493827160493827,0,0)" xlink:href="#aB"/><use transform="matrix(0.0493827160493827,0,0,0.0493827160493827,8.888888888888886,0)" xlink:href="#aK"/><use transform="matrix(0.0493827160493827,0,0,0.0493827160493827,12.79012345679012,0)" xlink:href="#aN"/><use transform="matrix(0.0493827160493827,0,0,0.0493827160493827,16.691358024691354,0)" xlink:href="#aJ"/><use transform="matrix(0.0493827160493827,0,0,0.0493827160493827,26.56790123456789,0)" xlink:href="#aO"/><use transform="matrix(0.0493827160493827,0,0,0.0493827160493827,36.44444444444443,0)" xlink:href="#aC"/><use transform="matrix(0.0493827160493827,0,0,0.0493827160493827,41.3827160493827,0)" xlink:href="#aQ"/></g></defs></g></svg>